<?xml version="1.0" encoding="utf-8"?>
<!-- Generator: Adobe Illustrator 24.0.1, SVG Export Plug-In . SVG Version: 6.00 Build 0)  -->
<svg version="1.1" id="Layer_1" xmlns="http://www.w3.org/2000/svg" xmlns:xlink="http://www.w3.org/1999/xlink" x="0px" y="0px"
	 viewBox="0 0 617.2 72.6" style="enable-background:new 0 0 617.2 72.6;" xml:space="preserve">
<style type="text/css">
	.st0{fill:#E0D5B9;}
	.st1{fill:#231A14;}
	.st2{clip-path:url(#SVGID_2_);}
	.st3{clip-path:url(#SVGID_4_);}
	.st4{fill:#AB9D8C;}
	.st5{clip-path:url(#SVGID_6_);}
	.st6{fill:#231A14;stroke:#231A14;stroke-width:0.25;}
	.st7{clip-path:url(#SVGID_8_);}
	.st8{fill:url(#SVGID_9_);}
	.st9{fill:#5C120E;}
</style>
<g>
	<g>
		<g>
			<path class="st0" d="M457.4,50.2c0,0-0.9-12.7,33.6-8.4c64.4,8,93.8-1.1,102.1-3c10.5-2.4,23-7.9,23-7.9c-13.1-2.4-36-7.3-36-7.3
				C604.5,13.2,613,0.7,613,0.7c-66.6,15.6-90.6,9.7-125,5.9s-30.9,4.8-30.9,4.8"/>
			<path class="st1" d="M457.4,50.2c0-1.7,1-3.3,2.2-4.5c1.3-1.2,2.7-2.1,4.4-2.7l1.2-0.5l1.2-0.3c0.8-0.2,1.7-0.5,2.5-0.6
				s1.7-0.3,2.5-0.4L474,41c0.9-0.1,1.7-0.1,2.6-0.1h2.6c1.7,0,3.4,0.1,5.1,0.2c3.4,0.3,6.8,0.6,10.2,1c13.6,1.6,27.3,2.6,41.1,2.7
				h5.1c1.7,0,3.4-0.1,5.1-0.1c3.4,0,6.9-0.3,10.3-0.4c6.8-0.5,13.7-1.2,20.4-2.3c6.8-1.1,13.4-2.7,20.1-4.4c6.6-1.9,13-4.3,19.3-7
				l0.1,0.6L580,24l-1.1-0.2l1.1-0.5l4.6-2.1c1.5-0.8,3-1.5,4.5-2.3c3-1.6,5.9-3.3,8.6-5.2c2.8-1.9,5.5-3.9,8-6.1s5-4.6,6.9-7.2
				l0.5,0.7c-13,3-26,5.7-39.2,7.6c-6.6,1-13.2,1.7-19.9,2.2c-6.7,0.4-13.3,0.7-20,0.5c-13.4-0.2-26.6-1.9-39.8-3.5
				c-6.6-0.8-13.2-1.5-19.8-1.6c-3.3-0.1-6.6,0.1-9.8,0.6l-1.2,0.2c-0.4,0.1-0.8,0.2-1.2,0.3c-0.8,0.2-1.5,0.5-2.2,0.8l-1,0.6
				c-0.2,0.3-0.6,0.4-0.7,0.7c-0.1,0.1-0.2,0.3-0.3,0.4c0,0.1-0.1,0.3-0.2,0.4c-0.1,0.3-0.1,0.6,0,0.8l-1.4,0.6
				c-0.4-1.2,0-2.3,0.6-3.1c0.3-0.4,0.7-0.7,1-1l1.2-0.7c0.8-0.3,1.6-0.7,2.5-0.9c0.4-0.1,0.8-0.2,1.3-0.3l1.3-0.2
				c3.4-0.5,6.7-0.6,10.1-0.6c6.7,0.1,13.4,0.9,20,1.7c13.2,1.6,26.4,3.4,39.7,3.6c6.6,0.2,13.3-0.1,19.9-0.4
				c6.6-0.5,13.2-1.1,19.8-2.1C587,5.9,600,3.2,613,0.3l1.2-0.3l-0.7,1c-2.1,2.8-4.5,5.1-7.1,7.3s-5.3,4.2-8.1,6.1s-5.8,3.6-8.7,5.2
				c-1.5,0.8-3,1.5-4.5,2.3l-4.6,2.1l-0.1-0.7l36,7.4l1,0.2l-0.9,0.4c-6.3,2.7-12.8,5.1-19.4,7c-6.7,1.7-13.3,3.3-20.1,4.4
				c-6.8,1.1-13.6,1.8-20.5,2.2c-3.4,0.2-6.9,0.4-10.3,0.4c-1.7,0-3.4,0.1-5.2,0.1h-5.2c-13.7-0.2-27.4-1.2-41.1-2.9
				c-3.4-0.4-6.8-0.8-10.2-1.1c-1.7-0.1-3.4-0.2-5.1-0.2h-2.6c-0.9,0-1.7,0-2.6,0.1l-2.6,0.2c-0.9,0.1-1.7,0.3-2.5,0.4
				c-0.9,0.1-1.7,0.3-2.5,0.6l-1.2,0.3l-1.2,0.5c-1.6,0.6-3.1,1.5-4.4,2.7C458.4,46.9,457.5,48.5,457.4,50.2z"/>
		</g>
		<g>
			<g>
				<defs>
					<path id="SVGID_1_" d="M457.4,50.2c0,0-0.9-12.7,33.6-8.4c64.4,8,93.8-1.1,102.1-3c10.5-2.4,23-7.9,23-7.9
						c-13.1-2.4-36-7.3-36-7.3C604.5,13.2,613,0.7,613,0.7c-66.6,15.6-90.6,9.7-125,5.9s-30.9,4.8-30.9,4.8"/>
				</defs>
				<clipPath id="SVGID_2_">
					<use xlink:href="#SVGID_1_"  style="overflow:visible;"/>
				</clipPath>
				<g class="st2">
					<path class="st1" d="M448.5,25.3c1.1-0.1,2.2,0,3.5-0.1c1.1,0,2.2-0.1,3.2-0.1c8.3-0.2,16.2-0.5,24.4-0.7
						c8.1-0.2,16-0.5,23.9-0.6c0.4,0,0.7,0,0.8-0.1c0,0-0.2-0.1-0.6-0.1c-11.1,0.3-22.3,0.6-33.3,0.7c-15-0.4-31.5-0.3-48.1,0.5
						c-2,0-3.8,0.3-4,0.5c-0.3,0.3,1,0.4,3,0.4C429.9,26,439.1,25.8,448.5,25.3z"/>
					<path class="st1" d="M421.2,24.1c8.6,0.2,17.8,0.1,27.2-0.4c1.1-0.1,2.2,0,3.5-0.1c1.1,0,2.2-0.1,3.2-0.1
						c8.3-0.2,16.2-0.5,24.4-0.7c8.1-0.2,16-0.5,23.9-0.6c0.4,0,0.7,0,0.8-0.1c0,0-0.2-0.1-0.6-0.1c-11.1,0.3-22.3,0.6-33.3,0.7
						c-15-0.4-31.5-0.3-48.1,0.5c-2,0-3.8,0.3-4,0.5S419.3,24.1,421.2,24.1z"/>
					<path class="st1" d="M501.4,18.6c-0.2,0-0.3-0.1-0.4-0.1c-10.2,0.2-20.5,0.5-30.7,0.6c-15-0.4-31.5-0.3-48.1,0.5
						c-2,0-3.8,0.3-4,0.5c-0.3,0.3,1,0.4,3,0.4c8.6,0.2,17.8,0.1,27.2-0.4c1.1-0.1,2.2,0,3.5-0.1c1.1,0,2.2-0.1,3.2-0.1
						c8.3-0.2,16.2-0.5,24.4-0.7C487,19,494.2,18.7,501.4,18.6L501.4,18.6z"/>
					<path class="st1" d="M494.7,17.3c-0.1,0-0.2-0.1-0.2-0.1c-8.1,0.2-16.2,0.4-24.3,0.5c-15-0.4-31.5-0.3-48.1,0.5
						c-2,0-3.8,0.3-4,0.5c-0.3,0.3,1,0.4,3,0.4c8.6,0.2,17.8,0.1,27.2-0.4c1.1-0.1,2.2,0,3.5-0.1c1.1,0,2.2-0.1,3.2-0.1
						c8.3-0.2,16.2-0.5,24.4-0.7C484.6,17.6,489.7,17.5,494.7,17.3C494.8,17.3,494.8,17.3,494.7,17.3z"/>
					<path class="st1" d="M441.5,17.3c1.1-0.1,2.2,0,3.5-0.1c1.1,0,2.2-0.1,3.2-0.1c8.3-0.2,16.2-0.5,24.4-0.7
						c8.1-0.2,16-0.5,23.9-0.6c0.4,0,0.7,0,0.8-0.1c0,0-0.2-0.1-0.6-0.1c-11.1,0.3-22.3,0.6-33.3,0.7c-15-0.4-31.5-0.3-48.1,0.5
						c-2,0-3.8,0.3-4,0.5c-0.3,0.3,1,0.4,3,0.4C422.8,17.9,432,17.8,441.5,17.3z"/>
					<path class="st1" d="M411.2,15.6c0.3-0.3,2.1-0.5,4-0.5c16.6-0.8,33.1-0.9,48.1-0.5c9-0.1,18.1-0.3,27.2-0.5
						c0.1,0,0.1,0.1,0.2,0c0.4-0.1,0.9,0,1.3,0.1l0,0c-6.5,0.1-12.9,0.3-19.6,0.5c-8.2,0.2-16.1,0.5-24.4,0.7
						c-1.1,0-2.1,0.1-3.2,0.1c-1.2,0-2.3,0-3.5,0.1c-9.5,0.5-18.7,0.6-27.2,0.4C412.2,16.1,410.9,15.9,411.2,15.6z"/>
					<path class="st1" d="M486,12.6c-0.2,0-0.4,0-0.7,0l0,0c3.4-0.1,6.8-0.2,10.2-0.2c-0.1,0.1-0.3,0.2-0.5,0.2
						c-2.6,0-5.3,0.1-7.9,0.2C486.8,12.6,486.4,12.7,486,12.6z"/>
					<path class="st1" d="M411.2,14c0.3-0.3,2.1-0.5,4-0.5c16.6-0.8,33.1-0.9,48.1-0.5c6.7-0.1,13.5-0.2,20.2-0.4
						c-0.2,0.1-0.4,0.1-0.5,0.2c-3.5,0.1-6.9,0.2-10.5,0.3c-8.2,0.2-16.1,0.5-24.4,0.7c-1.1,0-2.1,0.1-3.2,0.1c-1.2,0-2.3,0-3.5,0.1
						c-9.5,0.5-18.7,0.6-27.2,0.4C412.2,14.4,410.9,14.2,411.2,14z"/>
					<path class="st1" d="M493.2,10.8c0,0,0.1-0.1,0-0.1c0.7,0,1.4,0,2,0c0,0,0,0-0.1,0.1c-0.1,0-0.2,0-0.3,0c-0.1,0-0.2,0-0.3,0
						c-0.3,0-0.5,0.1-0.7,0.1c-0.1,0-0.1,0-0.1,0c-0.1,0-0.3,0-0.4,0C493.3,10.8,493.3,10.8,493.2,10.8L493.2,10.8z"/>
					<path class="st1" d="M411.1,12.3c0.3-0.3,2.1-0.5,4-0.5c16.6-0.8,33.1-0.9,48.1-0.5c0.1,0,0.3,0,0.4,0c0.4,0,0.7,0,1.2,0
						c0,0,0.3,0,0.4,0c1.1-0.1,2.1,0.1,3.2,0.1c0.2,0,0.3-0.1,0.3-0.2c5.9-0.1,11.9-0.2,17.8-0.4h0.1c0.3,0,0.6,0,0.9,0h0.1
						c0.2,0,0.5,0,0.7,0l0,0c1.3-0.1,2.5,0,3.8-0.1c0,0,0,0.1,0.1,0.1c-6.6,0.1-13.1,0.4-19.9,0.5c-8.2,0.2-16.1,0.5-24.4,0.7
						c-1.1,0-2.1,0.1-3.2,0.1c-1.2,0-2.3,0-3.5,0.1c-9.5,0.5-18.7,0.6-27.2,0.4C412.2,12.7,410.8,12.6,411.1,12.3z"/>
					<path class="st1" d="M460.8,9.7c-15-0.4-31.5-0.3-48.1,0.5c-2,0-3.8,0.3-4,0.5c-0.3,0.3,1,0.4,3,0.4c8.6,0.2,17.8,0.1,27.2-0.4
						c1.1-0.1,2.2,0,3.5-0.1c1.1,0,2.2-0.1,3.2-0.1c2.2,0,4.3-0.1,6.5-0.2c1.1,0,2.1-0.1,3.2-0.1c1,0,2.1,0,3.1-0.1
						c0.5,0,1-0.1,1.4-0.1c0.5,0,0.9-0.1,1.3-0.1c0.6,0,1.3-0.1,1.9-0.1c0.7,0,1.4,0,2.1,0c0,0,0,0,0-0.1
						C463.7,9.7,462.2,9.7,460.8,9.7z"/>
					<path class="st1" d="M458.3,8.4c-0.4-0.1-0.8-0.2-1.3-0.2c-0.9,0-1.8,0-2.8,0c-15-0.4-31.5-0.3-48.1,0.5c-2,0-3.8,0.3-4,0.5
						c-0.3,0.3,1,0.4,3,0.4c8.6,0.2,17.8,0.1,27.2-0.4c1.1-0.1,2.2,0,3.5-0.1c1.1,0,2.2-0.1,3.2-0.1c6.3-0.1,12.4-0.4,18.5-0.5
						C457.9,8.5,458.1,8.5,458.3,8.4z"/>
					<path class="st1" d="M464.1,8.3c0.1,0,0.2,0,0.2-0.2c-0.7,0-1.5,0-2.2,0c-0.5,0.1,0,0.1,0,0.2c0.5-0.1,0.9-0.2,1.4-0.1
						c0.2,0,0.3,0,0.5,0C464,8.3,464,8.3,464.1,8.3z"/>
					<path class="st1" d="M486,8.3L486,8.3c0.4,0,0.8,0,1.2,0c0.5,0,1,0.1,1.4,0.1c0.2,0,0.4,0.1,0.5,0.1c-0.1,0-0.1,0-0.2,0
						c-0.2,0-0.3,0-0.5,0c-0.6,0-1.2-0.1-1.8-0.1c-1.2,0-2.3,0.1-3.5-0.1c-0.2,0-0.3,0.1-0.3,0.2C478.2,8.3,475.6,8,486,8.3z"/>
					<path class="st1" d="M495.7,8.3c0.1,0,0.2,0,0.2-0.2c-0.7,0-1.5,0-2.2,0c-0.5,0.1,0,0.1,0,0.2c0.5-0.1,0.9-0.2,1.4-0.1
						c0.2,0,0.3,0,0.5,0C495.6,8.3,495.7,8.3,495.7,8.3z"/>
					<path class="st1" d="M479.2,9.8c-0.4-0.1-0.8-0.1-1.3-0.1c-0.9,0-1.8,0-2.8,0c-15-0.3-2.8,0.3,3.3,0.2
						C478.7,9.8,478.9,9.8,479.2,9.8z"/>
				</g>
			</g>
		</g>
		<g>
			<path class="st0" d="M161.1,46.5c0,0,1.1-7.1-33.6-8.4c-37.9-1.5-62.4,3.4-76,6C41.6,46,4.9,54.6,4.9,54.6
				c11.2-8.7,33.4-25.3,33.4-25.3C13.8,22,0.1,21.7,0.1,21.7C40.6,7.7,81.7,4,117.9,1.5c44.4-3.1,43.2,7.7,43.2,7.7"/>
			<path class="st1" d="M161.1,46.5c0-0.9-0.6-1.6-1.2-2.1c-0.6-0.6-1.3-1-2.1-1.4c-1.5-0.8-3.1-1.3-4.7-1.8
				c-3.2-0.9-6.5-1.5-9.8-1.9c-6.6-0.9-13.3-1.2-20-1.3c-13.3-0.4-26.7,0.1-40,1.4C70.2,40.7,57,43.1,44,46s-26,5.9-39,9l-0.3-0.5
				c5.5-4.3,11.1-8.5,16.6-12.7L38.1,29l0.1,0.7c-3.1-0.9-6.2-1.8-9.4-2.6c-3.1-0.8-6.3-1.5-9.5-2.2s-6.4-1.2-9.6-1.7
				s-6.4-0.9-9.6-1L0,21.3c13.1-4.5,26.5-8.2,40.1-10.9C46.8,9,53.7,7.8,60.5,6.7c6.8-1,13.7-1.9,20.6-2.7
				c13.8-1.5,27.5-2.6,41.4-3.5c6.9-0.4,13.9-0.5,20.8,0.1c3.5,0.3,6.9,0.8,10.3,1.8c1.7,0.5,3.4,1.1,4.9,2.1
				c0.8,0.5,1.5,1.1,2.2,1.8c0.3,0.4,0.6,0.8,0.8,1.2c0.1,0.2,0.2,0.5,0.3,0.7c0.1,0.3,0.1,0.5,0.1,0.9l-1.5-0.2c0,0,0-0.2-0.1-0.4
				c0-0.2-0.1-0.3-0.2-0.5c-0.2-0.3-0.4-0.6-0.6-0.9c-0.5-0.6-1.1-1.1-1.8-1.5c-1.4-0.9-3-1.5-4.6-2c-3.2-1-6.6-1.5-10-1.8
				c-6.8-0.6-13.7-0.5-20.6-0.2C108.7,2.4,94.9,3.5,81.2,5c-6.9,0.7-13.7,1.6-20.5,2.6C53.8,8.9,47,10,40.3,11.4
				c-13.5,2.7-26.9,6.3-40,10.7l-0.1-0.9c3.3,0.2,6.5,0.6,9.8,1.1c3.2,0.5,6.4,1.1,9.6,1.8c3.2,0.7,6.4,1.4,9.5,2.2
				c3.2,0.8,6.3,1.7,9.4,2.6l0.7,0.2l-0.6,0.5L21.8,42.2c-5.6,4.2-11.2,8.4-16.7,12.7l-0.3-0.5c13-3,26-6,39-8.9
				c13-2.8,26.2-5.1,39.5-6.4c13.3-1.2,26.7-1.6,40-1.2c6.7,0.2,13.3,0.5,20,1.4c3.3,0.5,6.6,1,9.8,2c1.6,0.5,3.2,1,4.7,1.8
				c0.7,0.4,1.5,0.8,2.1,1.4C160.5,45,161.1,45.7,161.1,46.5z"/>
		</g>
		<g>
			<g>
				<defs>
					<path id="SVGID_3_" d="M160.9,48c0,0,1.1-7.1-33.6-8.4c-37.9-1.5-67.4,3.2-79.4,6.3c-12.2,3.1-43,8.8-43,8.8
						C16.7,45,38.4,29.4,38.4,29.4c-24.5-7.3-38.2-7.6-38.2-7.6C40.6,7.7,81.7,4,117.9,1.5c44.4-3.1,43.2,7.7,43.2,7.7"/>
				</defs>
				<clipPath id="SVGID_4_">
					<use xlink:href="#SVGID_3_"  style="overflow:visible;"/>
				</clipPath>
				<g class="st3">
					<path class="st1" d="M167.8,22.2c-1.1-0.1-2.2,0-3.5-0.1c-1.1,0-2.2-0.1-3.2-0.1c-8.3-0.2-16.2-0.5-24.4-0.7
						c-8.1-0.2-16-0.5-23.9-0.6c-0.4,0-0.7,0-0.8-0.1c0,0,0.2-0.1,0.6-0.1c11.1,0.3,22.3,0.6,33.3,0.7c15-0.4,31.5-0.3,48.1,0.5
						c2,0,3.8,0.3,4,0.5c0.3,0.3-1,0.4-3,0.4C186.5,22.8,177.3,22.7,167.8,22.2z"/>
					<path class="st1" d="M195.1,20.9c-8.6,0.2-17.8,0.1-27.2-0.4c-1.1-0.1-2.2,0-3.5-0.1c-1.1,0-2.2-0.1-3.2-0.1
						c-8.3-0.2-16.2-0.5-24.4-0.7c-8.1-0.2-16-0.5-23.9-0.6c-0.4,0-0.7,0-0.8-0.1c0,0,0.2-0.1,0.6-0.1c11.1,0.3,22.3,0.6,33.3,0.7
						c15-0.4,31.5-0.3,48.1,0.5c2,0,3.8,0.3,4,0.5C198.4,20.8,197,20.9,195.1,20.9z"/>
					<path class="st1" d="M114.9,15.5c0.2,0,0.3-0.1,0.4-0.1c10.2,0.2,20.5,0.5,30.7,0.6c15-0.4,31.5-0.3,48.1,0.5
						c2,0,3.8,0.3,4,0.5c0.3,0.3-1,0.4-3,0.4c-8.6,0.2-17.8,0.1-27.2-0.4c-1.1-0.1-2.2,0-3.5-0.1c-1.1,0-2.2-0.1-3.2-0.1
						c-8.3-0.2-16.2-0.5-24.4-0.7C129.4,15.8,122.2,15.6,114.9,15.5L114.9,15.5z"/>
					<path class="st1" d="M121.6,14.2c0.1,0,0.2-0.1,0.2-0.1c8.1,0.2,16.2,0.4,24.3,0.5c15-0.4,31.5-0.3,48.1,0.5c2,0,3.8,0.3,4,0.5
						c0.3,0.3-1,0.4-3,0.4c-8.6,0.2-17.8,0.1-27.2-0.4c-1.1-0.1-2.2,0-3.5-0.1c-1.1,0-2.2-0.1-3.2-0.1c-8.3-0.2-16.2-0.5-24.4-0.7
						C131.7,14.5,126.6,14.3,121.6,14.2L121.6,14.2z"/>
					<path class="st1" d="M174.9,14.1c-1.1-0.1-2.2,0-3.5-0.1c-1.1,0-2.2-0.1-3.2-0.1c-8.3-0.2-16.2-0.5-24.4-0.7
						c-8.1-0.2-16-0.5-23.9-0.6c-0.4,0-0.7,0-0.8-0.1c0,0,0.2-0.1,0.6-0.1c11.1,0.3,22.3,0.6,33.3,0.7c15-0.4,31.5-0.3,48.1,0.5
						c2,0,3.8,0.3,4,0.5c0.3,0.3-1,0.4-3,0.4C193.6,14.8,184.4,14.7,174.9,14.1z"/>
					<path class="st1" d="M205.1,12.5c-0.3-0.3-2.1-0.5-4-0.5c-16.6-0.8-33.1-1-48.1-0.5c-9-0.1-18.1-0.3-27.2-0.5
						c-0.1,0-0.1,0.1-0.2,0c-0.4-0.1-0.9,0-1.3,0.1l0,0c6.5,0.1,12.9,0.3,19.6,0.5c8.2,0.2,16.1,0.5,24.4,0.7c1.1,0,2.1,0.1,3.2,0.1
						c1.2,0,2.3,0,3.5,0.1c9.5,0.5,18.7,0.6,27.2,0.4C204.1,12.9,205.5,12.7,205.1,12.5z"/>
					<path class="st1" d="M205.2,10.8c-0.3-0.3-2.1-0.5-4-0.5c-16.6-0.8-33.1-0.9-48.1-0.5c-6.7-0.1-13.5-0.2-20.2-0.4
						c0.2,0.1,0.4,0.1,0.5,0.2c3.5,0.1,6.9,0.2,10.5,0.3c8.2,0.2,16.1,0.5,24.4,0.7c1.1,0,2.1,0.1,3.2,0.1c1.2,0,2.3,0,3.5,0.1
						c9.5,0.5,18.7,0.6,27.2,0.4C204.2,11.3,205.5,11.1,205.2,10.8z"/>
					<path class="st1" d="M123.1,7.7C123.1,7.7,123,7.6,123.1,7.7c-0.7-0.1-1.4-0.1-2-0.1c0,0,0,0,0.1,0.1c0.1,0,0.2,0,0.3,0
						c0.1,0,0.2,0,0.3,0c0.3,0,0.5,0.1,0.7,0.1c0.1,0,0.1,0,0.1,0C122.7,7.8,122.9,7.8,123.1,7.7C123,7.7,123.1,7.7,123.1,7.7
						L123.1,7.7z"/>
					<path class="st1" d="M205.2,9.1c-0.3-0.3-2.1-0.5-4-0.5c-16.6-0.8-33.1-0.9-48.1-0.5c-0.1,0-0.3,0-0.4,0c-0.4,0-0.7,0-1.2,0
						c0,0-0.3,0-0.4,0C150,8,149,8.2,147.9,8.2c-0.2,0-0.3-0.1-0.3-0.2c-5.9-0.1-11.9-0.2-17.8-0.4h-0.1c-0.3,0-0.6,0-0.9,0h-0.1
						c-0.2,0-0.5,0-0.7,0l0,0c-1.3-0.1-2.5,0-3.8-0.1c0,0,0,0.1-0.1,0.1c6.6,0.1,13.1,0.4,19.9,0.5c8.2,0.2,16.1,0.5,24.4,0.7
						c1.1,0,2.1,0.1,3.2,0.1c1.2,0,2.3,0,3.5,0.1c9.5,0.5,18.7,0.6,27.2,0.4C204.2,9.6,205.5,9.4,205.2,9.1z"/>
					<path class="st1" d="M155.5,6.6c15-0.4,31.5-0.3,48.1,0.5c2,0,3.8,0.3,4,0.5c0.3,0.3-1,0.4-3,0.4c-8.6,0.2-17.8,0.1-27.2-0.4
						c-1.1-0.1-2.2,0-3.5-0.1c-1.1,0-2.2-0.1-3.2-0.1c-2.2,0-4.3-0.1-6.5-0.2c-1.1,0-2.1-0.1-3.2-0.1c-1,0-2.1,0-3.1-0.1
						c-0.5,0-1-0.1-1.4-0.1c-0.5,0-0.9-0.1-1.3-0.1c-0.6,0-1.3-0.1-1.9-0.1c-0.7,0-1.4,0-2.1,0c0,0,0,0,0-0.1
						C152.7,6.5,154.1,6.5,155.5,6.6z"/>
					<path class="st1" d="M158,5.3c0.4-0.1,0.8-0.2,1.3-0.2c0.9,0,1.8,0,2.8,0c15-0.4,31.5-0.3,48.1,0.5c2,0,3.8,0.3,4,0.5
						c0.3,0.3-1,0.4-3,0.4c-8.6,0.2-17.8,0.1-27.2-0.4c-1.1-0.1-2.2,0-3.5-0.1c-1.1,0-2.2-0.1-3.2-0.1c-6.3-0.1-12.4-0.4-18.5-0.5
						C158.5,5.3,158.3,5.3,158,5.3z"/>
					<path class="st1" d="M152.3,5.1c-0.1,0-0.2,0-0.2-0.2c0.7,0,1.5,0,2.2,0c0.5,0.1,0,0.1,0,0.2c-0.5-0.1-0.9-0.2-1.4-0.1
						c-0.2,0-0.3,0-0.5,0C152.4,5.1,152.3,5.1,152.3,5.1z"/>
					<path class="st1" d="M130.4,5.1L130.4,5.1c-0.4,0-0.8,0-1.2,0c-0.5,0-1,0.1-1.4,0.1c-0.2,0-0.4,0.1-0.5,0.1c0.1,0,0.1,0,0.2,0
						c0.2,0,0.3,0,0.5,0c0.6,0,1.2-0.1,1.8-0.1c1.2,0,2.3,0.1,3.5-0.1c0.2,0,0.3,0.1,0.3,0.2C138.1,5.1,140.8,4.8,130.4,5.1z"/>
					<path class="st1" d="M137.2,6.6c0.4-0.1,0.8-0.1,1.3-0.1c0.9,0,1.8,0,2.8,0c15-0.3,2.8,0.3-3.3,0.2
						C137.7,6.6,137.4,6.6,137.2,6.6z"/>
				</g>
			</g>
		</g>
		<g>
			<path class="st4" d="M102.4,24c0-1.7,1.3-12.4,29.6-7.9c29.2,4.6,29.2-8.4,29.2-8.4v38.2c0,0.4-0.1,0.9-0.4,1.3
				c-1.3,2-7,10.9-29.8,6.5c-27.6-5.3-28.2,6.3-28.2,6.3l-0.4-37.2"/>
			<path class="st1" d="M102.4,24c0-1.4,0.5-2.8,1.4-4c0.8-1.2,2-2.1,3.2-2.8c2.5-1.4,5.3-2.1,8.1-2.4c5.6-0.7,11.3-0.2,16.9,0.7
				c2.8,0.4,5.5,0.7,8.3,0.9c2.8,0.1,5.5,0.2,8.3-0.2c2.7-0.3,5.4-1,7.8-2.3c1.2-0.7,2.2-1.5,3-2.6c0.8-1,1.4-2.3,1.5-3.6h0.8
				c-0.1,4.3-0.1,8.6-0.1,12.9s0,8.6,0,12.9l0.1,6.5v3.2v1.6c0,0.6,0.1,1,0,1.7c-0.1,0.3-0.2,0.6-0.3,0.9c-0.1,0.2-0.3,0.5-0.4,0.7
				c-0.3,0.5-0.7,0.9-1,1.3c-0.7,0.8-1.6,1.6-2.5,2.2c-1.8,1.3-3.9,2.2-6,2.8c-4.3,1.2-8.7,1.3-13,1c-2.2-0.2-4.3-0.4-6.5-0.8
				c-2.1-0.4-4.2-0.7-6.3-1c-4.2-0.5-8.5-0.7-12.6-0.1c-2.1,0.3-4.1,1-5.8,2c-0.9,0.5-1.6,1.2-2.2,1.9c-0.3,0.4-0.5,0.8-0.7,1.2
				s-0.4,0.9-0.4,1.3h-1.5c0-6.2,0-12.4,0-18.6s0.1-12.4,0.2-18.6h0.1c0.2,6.2,0.5,12.4,0.6,18.6c0.2,6.2,0.3,12.4,0.4,18.6h-1.5
				c0.3-2.6,2.1-4.4,4-5.7c2-1.2,4.1-1.9,6.3-2.3c2.2-0.4,4.4-0.5,6.6-0.5s4.4,0.2,6.5,0.5c2.2,0.3,4.3,0.7,6.4,1.1
				c2.1,0.4,4.2,0.7,6.3,0.9c4.2,0.4,8.5,0.3,12.6-0.7c2-0.5,4-1.3,5.7-2.5c0.9-0.6,1.7-1.2,2.4-2c0.4-0.4,0.7-0.8,1-1.2
				c0.2-0.2,0.3-0.4,0.4-0.6c0.1-0.2,0.2-0.4,0.3-0.6c0.1-0.4,0-1,0.1-1.5v-1.6V40l0.1-6.5c0-4.3,0.1-8.6,0-12.9
				c0-4.3-0.1-8.6-0.1-12.9h0.8c-0.2,3.1-2.3,5.6-4.8,7.1s-5.3,2.3-8.2,2.6c-5.7,0.7-11.4,0.2-16.9-0.7c-2.7-0.4-5.5-0.8-8.3-1
				s-5.6-0.3-8.3,0c-2.7,0.3-5.5,0.8-8,2c-1.2,0.6-2.3,1.5-3.2,2.5c-0.8,1.1-1.4,2.4-1.5,3.8L102.4,24z"/>
		</g>
		<g>
			<path class="st4" d="M515.9,26.2c0-1.7-1.3-12.4-29.6-7.9c-29.2,4.6-29.2-8.4-29.2-8.4v38.2c0,0.4,0.1,0.9,0.4,1.3
				c1.3,2,7,10.9,29.8,6.5c27.6-5.3,28.5,8.4,28.5,8.4l0.1-39.3"/>
			<path class="st1" d="M515.8,26.2c-0.1-1.4-0.7-2.7-1.5-3.8c-0.9-1.1-2-1.9-3.2-2.5c-2.5-1.2-5.2-1.8-8-2c-2.8-0.3-5.5-0.2-8.3,0
				s-5.5,0.5-8.3,1c-5.5,0.9-11.2,1.5-16.9,0.7c-2.8-0.4-5.7-1.1-8.2-2.6s-4.6-4-4.8-7.1h0.8c-0.2,8.7-0.2,17.5-0.1,26.2l0.1,6.5
				v3.3v1.6c0,0.6,0,1,0.2,1.4c1,1.7,2.6,3.3,4.4,4.4c1.8,1.1,3.8,1.8,5.9,2.3c4.2,0.9,8.5,0.9,12.8,0.5c2.1-0.2,4.3-0.6,6.4-1
				c2.2-0.4,4.3-0.8,6.5-1c4.4-0.4,8.9-0.4,13.3,0.8c2.2,0.6,4.3,1.6,6,3.2c1.7,1.6,3.1,3.6,3.4,6.1h-1.5l0.3-19.7
				c0.1-6.6,0.3-13.1,0.5-19.7h0.1c0.2,6.6,0.3,13.1,0.4,19.7l0.2,19.7h-1.5c-0.1-0.9-0.5-1.9-1-2.7c-0.5-0.9-1.2-1.6-1.9-2.3
				c-1.5-1.3-3.4-2.3-5.5-2.8c-4.1-1.2-8.4-1.1-12.7-0.8c-2.1,0.2-4.3,0.5-6.4,0.9c-2.2,0.4-4.3,0.7-6.5,0.9
				c-4.4,0.4-8.9,0.3-13.2-0.7c-4.3-1.1-8.5-3.4-10.8-7.5c-0.3-0.6-0.2-1.3-0.2-1.8v-1.6v-3.3l0.1-6.5c0.1-8.7,0-17.5-0.1-26.2h0.8
				c0.1,1.2,0.7,2.5,1.5,3.6c0.8,1,1.9,1.9,3,2.6c2.4,1.3,5.1,2,7.8,2.3c2.7,0.3,5.5,0.3,8.3,0.2c2.8-0.1,5.5-0.5,8.3-0.9
				c5.6-0.8,11.2-1.3,16.9-0.7c2.8,0.4,5.6,1,8.1,2.4c1.2,0.7,2.4,1.6,3.2,2.8C515.3,23.3,515.9,24.7,515.8,26.2L515.8,26.2z"/>
		</g>
		<g>
			<g>
				<defs>
					<path id="SVGID_5_" d="M515.9,26.2c0-1.7-1.3-12.4-29.6-7.9c-29.2,4.6-29.2-8.4-29.2-8.4v38.2c0,0.4,0.1,0.9,0.4,1.3
						c1.3,2,7,10.9,29.8,6.5c27.6-5.3,28.5,8.4,28.5,8.4l0.1-39.3"/>
				</defs>
				<clipPath id="SVGID_6_">
					<use xlink:href="#SVGID_5_"  style="overflow:visible;"/>
				</clipPath>
				<g class="st5">
					<path class="st1" d="M463.7,42.1c15-0.2,31.5,0.2,48.1,1.3c2,0.1,3.8,0.3,4,0.6c0.3,0.3-1,0.4-3,0.4
						c-8.6,0.1-17.8-0.2-27.2-0.9c-1.1-0.1-2.2-0.1-3.5-0.1c-1.1-0.1-2.1-0.2-3.2-0.2c-8.3-0.3-16.2-0.8-24.4-1.1
						c-8.1-0.3-16-0.7-23.9-1c-0.4,0-0.7-0.1-0.8-0.1c0,0,0.2-0.1,0.6-0.1C441.5,41.3,452.6,41.8,463.7,42.1z"/>
					<path class="st6" d="M472.8,41.1c15-0.4,31.5-0.3,48.1,0.5c2,0,3.8,0.3,4,0.5c0.3,0.3-1,0.4-3,0.4c-8.6,0.2-17.8,0.1-27.2-0.4
						c-1.1-0.1-2.2,0-3.5-0.1c-1.1,0-2.2-0.1-3.2-0.1c-8.3-0.2-16.2-0.5-24.4-0.7c-8.1-0.2-16-0.5-23.9-0.6c-0.4,0-0.7,0-0.8-0.1
						c0,0,0.2-0.1,0.6-0.1C450.6,40.7,461.7,41,472.8,41.1z"/>
					<path class="st1" d="M473.8,39.7c15-0.4,31.5-0.3,48.1,0.5c2,0,3.8,0.3,4,0.5c0.3,0.3-1,0.4-3,0.4c-8.6,0.2-17.8,0.1-27.2-0.4
						c-1.1-0.1-2.2,0-3.5-0.1c-1.1,0-2.2-0.1-3.2-0.1c-8.3-0.2-16.2-0.5-24.4-0.7c-8.1-0.2-16-0.5-23.9-0.6c-0.4,0-0.7,0-0.8-0.1
						c0,0,0.2-0.1,0.6-0.1C451.6,39.3,462.8,39.6,473.8,39.7z"/>
					<path class="st1" d="M440,37.4c0,0,0.2-0.1,0.6-0.1c11.1,0.3,22.3,0.6,33.3,0.7c15-0.4,31.5-0.3,48.1,0.5c2,0,3.8,0.3,4,0.5
						c0.3,0.3-1,0.4-3,0.4c-8.6,0.2-17.8,0.1-27.2-0.4c-1.1-0.1-2.2,0-3.5-0.1c-1.1,0-2.2-0.1-3.2-0.1c-8.3-0.2-16.2-0.5-24.4-0.7
						c-8.1-0.2-16-0.5-23.9-0.6C440.4,37.5,440.1,37.5,440,37.4z"/>
					<path class="st1" d="M525.2,37c2,0,3.8,0.3,4,0.5c0.3,0.3-1,0.4-3,0.4c-8.6,0.2-17.8,0.1-27.2-0.4c-1.1-0.1-2.2,0-3.5-0.1
						c-1.1,0-2.2-0.1-3.2-0.1c-8.3-0.2-16.2-0.5-24.4-0.7c-8.1-0.2-16-0.5-23.9-0.6c-0.4,0-0.7,0-0.8-0.1c0,0,0.2-0.1,0.6-0.1
						c11.1,0.3,22.3,0.6,33.3,0.7C492.1,36.1,508.6,36.2,525.2,37z"/>
					<path class="st1" d="M504.8,35.9c-1.1-0.1-2.2,0-3.5-0.1c-1.1,0-2.2-0.1-3.2-0.1c-8.3-0.2-16.2-0.5-24.4-0.7
						c-8.1-0.2-16-0.5-23.9-0.6c-0.4,0-0.7,0-0.8-0.1c0,0,0.2-0.1,0.6-0.1c11.1,0.3,22.3,0.6,33.3,0.7c15-0.4,31.5-0.3,48.1,0.5
						c2,0,3.8,0.3,4,0.5c0.3,0.3-1,0.4-3,0.4C523.5,36.5,514.3,36.4,504.8,35.9z"/>
					<path class="st1" d="M532.1,34.6c-8.6,0.2-17.8,0.1-27.2-0.4c-1.1-0.1-2.2,0-3.5-0.1c-1.1,0-2.2-0.1-3.2-0.1
						c-8.3-0.2-16.2-0.5-24.4-0.7c-8.1-0.2-16-0.5-23.9-0.6c-0.4,0-0.7,0-0.8-0.1c0,0,0.2-0.1,0.6-0.1c11.1,0.3,22.3,0.6,33.3,0.7
						c15-0.4,31.5-0.3,48.1,0.5c2,0,3.8,0.3,4,0.5C535.4,34.5,534,34.7,532.1,34.6z"/>
					<path class="st1" d="M526.5,32.2c-8.6,0.2-17.8,0.1-27.2-0.4c-1.1-0.1-2.2,0-3.5-0.1c-1.1,0-2.2-0.1-3.2-0.1
						c-8.3-0.2-16.2-0.5-24.4-0.7c-8.1-0.2-16-0.5-23.9-0.6c-0.4,0-0.7,0-0.8-0.1c0,0,0.2-0.1,0.6-0.1c11.1,0.3,22.3,0.6,33.3,0.7
						c15-0.4,31.5-0.3,48.1,0.5c2,0,3.8,0.3,4,0.5S528.4,32.2,526.5,32.2z"/>
					<path class="st1" d="M449.7,29c11.1,0.3,22.3,0.6,33.3,0.7c15-0.4,31.5-0.3,48.1,0.5c2,0,3.8,0.3,4,0.5c0.3,0.3-1,0.4-3,0.4
						c-8.6,0.2-17.8,0.1-27.2-0.4c-1.1-0.1-2.2,0-3.5-0.1c-1.1,0-2.2-0.1-3.2-0.1c-8.3-0.2-16.2-0.5-24.4-0.7
						c-8.1-0.2-16-0.5-23.9-0.6c-0.4,0-0.7,0-0.8-0.1C449.1,29,449.4,29,449.7,29z"/>
					<path class="st1" d="M531.1,28.7c2,0,3.8,0.3,4,0.5c0.3,0.3-1,0.4-3,0.4c-8.6,0.2-17.8,0.1-27.2-0.4c-1.1-0.1-2.2,0-3.5-0.1
						c-1.1,0-2.2-0.1-3.2-0.1c-8.3-0.2-16.2-0.5-24.4-0.7c-8.1-0.2-16-0.5-23.9-0.6c-0.4,0-0.7,0-0.8-0.1c0,0,0.2-0.1,0.6-0.1
						c11.1,0.3,22.3,0.6,33.3,0.7C498.1,27.8,514.6,27.9,531.1,28.7z"/>
					<path class="st1" d="M511.9,27.8c-1.1-0.1-2.2,0-3.5-0.1c-1.1,0-2.2-0.1-3.2-0.1c-8.3-0.2-16.2-0.5-24.4-0.7
						c-8.1-0.2-16-0.5-23.9-0.6c-0.4,0-0.7,0-0.8-0.1c0,0,0.2-0.1,0.6-0.1c11.1,0.3,22.3,0.6,33.3,0.7c15-0.4,31.5-0.3,48.1,0.5
						c2,0,3.8,0.3,4,0.5c0.3,0.3-1,0.4-3,0.4C530.5,28.5,521.3,28.4,511.9,27.8z"/>
					<path class="st1" d="M542.1,26.2c-0.3-0.3-2.1-0.5-4-0.5c-16.6-0.8-33.1-0.9-48.1-0.5c-9-0.1-18.1-0.3-27.2-0.5
						c-0.1,0-0.1,0.1-0.2,0c-0.4-0.1-0.9,0-1.3,0.1l0,0c6.5,0.1,12.9,0.3,19.6,0.5c8.2,0.2,16.1,0.5,24.4,0.7c1.1,0,2.1,0.1,3.2,0.1
						c1.2,0,2.3,0,3.5,0.1c9.5,0.5,18.7,0.6,27.2,0.4C541.1,26.6,542.4,26.4,542.1,26.2z"/>
					<path class="st1" d="M467.3,23.2c0.2,0,0.4,0,0.7,0l0,0c-3.4-0.1-6.8-0.2-10.2-0.2c0.1,0.1,0.3,0.2,0.5,0.2
						c2.6,0,5.3,0.1,7.9,0.2C466.6,23.2,467,23.2,467.3,23.2z"/>
					<path class="st1" d="M542.2,24.5c-0.3-0.3-2.1-0.5-4-0.5c-16.6-0.8-33.1-0.9-48.1-0.5c-6.7-0.1-13.5-0.2-20.2-0.4
						c0.2,0.1,0.4,0.1,0.5,0.2c3.5,0.1,6.9,0.2,10.5,0.3c8.2,0.2,16.1,0.5,24.4,0.7c1.1,0,2.1,0.1,3.2,0.1c1.2,0,2.3,0,3.5,0.1
						c9.5,0.5,18.7,0.6,27.2,0.4C541.1,25,542.5,24.8,542.2,24.5z"/>
					<path class="st1" d="M460.1,21.4c0,0-0.1-0.1,0-0.1c-0.7,0-1.4,0-2,0c0,0,0,0,0.1,0.1c0.1,0,0.2,0,0.3,0c0.1,0,0.2,0,0.3,0
						c0.3,0,0.5,0.1,0.7,0.1c0.1,0,0.1,0,0.1,0c0.1,0,0.3,0,0.4,0C460,21.4,460.1,21.4,460.1,21.4L460.1,21.4z"/>
					<path class="st1" d="M542.2,22.9c-0.3-0.3-2.1-0.5-4-0.5c-16.6-0.8-33.1-0.9-48.1-0.5c-0.1,0-0.3,0-0.4,0c-0.4,0-0.7,0-1.2,0
						c0,0-0.3,0-0.4,0c-1.1-0.1-2.1,0.1-3.2,0.1c-0.2,0-0.3-0.1-0.3-0.2c-5.9-0.1-11.9-0.2-17.8-0.4h-0.1c-0.3,0-0.6,0-0.9,0h-0.1
						c-0.2,0-0.5,0-0.7,0l0,0c-1.3-0.1-2.5,0-3.8-0.1c0,0,0,0.1-0.1,0.1c6.6,0.1,13.1,0.4,19.9,0.5c8.2,0.2,16.1,0.5,24.4,0.7
						c1.1,0,2.1,0.1,3.2,0.1c1.2,0,2.3,0,3.5,0.1c9.5,0.5,18.7,0.6,27.2,0.4C541.2,23.3,542.5,23.1,542.2,22.9z"/>
					<path class="st1" d="M492.5,20.3c15-0.4,31.5-0.3,48.1,0.5c2,0,3.8,0.3,4,0.5c0.3,0.3-1,0.4-3,0.4c-8.6,0.2-17.8,0.1-27.2-0.4
						c-1.1-0.1-2.2,0-3.5-0.1c-1.1,0-2.2-0.1-3.2-0.1c-2.2,0-4.3-0.1-6.5-0.2c-1.1,0-2.1-0.1-3.2-0.1c-1,0-2.1,0-3.1-0.1
						c-0.5,0-1-0.1-1.4-0.1c-0.5,0-0.9-0.1-1.3-0.1c-0.6,0-1.3-0.1-1.9-0.1c-0.7,0-1.4,0-2.1,0c0,0,0,0,0-0.1
						C489.6,20.2,491.1,20.3,492.5,20.3z"/>
					<path class="st1" d="M495,19c0.4-0.1,0.8-0.2,1.3-0.2c0.9,0,1.8,0,2.8,0c15-0.4,31.5-0.3,48.1,0.5c2,0,3.8,0.3,4,0.5
						c0.3,0.3-1,0.4-3,0.4c-8.6,0.2-17.8,0.1-27.2-0.4c-1.1-0.1-2.2,0-3.5-0.1c-1.1,0-2.2-0.1-3.2-0.1c-6.3-0.1-12.4-0.4-18.5-0.5
						C495.5,19,495.2,19,495,19z"/>
					<path class="st1" d="M489.3,18.8c-0.1,0-0.2,0-0.2-0.2c0.7,0,1.5,0,2.2,0c0.5,0.1,0,0.1,0,0.2c-0.5-0.1-0.9-0.2-1.4-0.1
						c-0.2,0-0.3,0-0.5,0C489.4,18.8,489.3,18.8,489.3,18.8z"/>
					<path class="st1" d="M467.4,18.8C467.4,18.8,467.3,18.8,467.4,18.8c-0.4,0-0.8,0-1.2,0c-0.5,0-1,0.1-1.4,0.1
						c-0.2,0-0.4,0.1-0.5,0.1c0.1,0,0.1,0,0.2,0c0.2,0,0.3,0,0.5,0c0.6,0,1.2-0.1,1.8-0.1c1.2,0,2.3,0.1,3.5-0.1
						c0.2,0,0.3,0.1,0.3,0.2C475.1,18.9,477.8,18.5,467.4,18.8z"/>
					<path class="st1" d="M457.6,18.8c-0.1,0-0.2,0-0.2-0.2c0.7,0,1.5,0,2.2,0c0.5,0.1,0,0.1,0,0.2c-0.5-0.1-0.9-0.2-1.4-0.1
						c-0.2,0-0.3,0-0.5,0C457.7,18.8,457.7,18.8,457.6,18.8z"/>
					<path class="st1" d="M474.2,20.3c0.4-0.1,0.8-0.1,1.3-0.1c0.9,0,1.8,0,2.8,0c15-0.3,2.8,0.3-3.3,0.2
						C474.7,20.3,474.4,20.3,474.2,20.3z"/>
				</g>
			</g>
		</g>
		<g>
			<g>
				<defs>
					<path id="SVGID_7_" d="M102.4,24c0-1.7,1.3-12.4,29.6-7.9c29.2,4.6,29.2-8.4,29.2-8.4v38.2c0,0.4-0.1,0.9-0.4,1.3
						c-1.3,2-7,10.9-29.8,6.5c-27.6-5.3-28.4,6.7-28.4,6.7l-0.1-37.7"/>
				</defs>
				<clipPath id="SVGID_8_">
					<use xlink:href="#SVGID_7_"  style="overflow:visible;"/>
				</clipPath>
				<g class="st7">
					<path class="st1" d="M155.4,40c-15-0.2-31.5,0.2-48.1,1.3c-2,0.1-3.8,0.3-4,0.6c-0.3,0.3,1,0.4,3,0.4
						c8.6,0.1,17.8-0.2,27.2-0.9c1.1-0.1,2.2-0.1,3.5-0.1c1.1-0.1,2.1-0.2,3.2-0.2c8.3-0.3,16.2-0.8,24.4-1.1c8.1-0.3,16-0.7,23.9-1
						c0.4,0,0.7-0.1,0.8-0.1c0,0-0.2-0.1-0.6-0.1C177.6,39.2,166.4,39.7,155.4,40z"/>
					<path class="st6" d="M146.3,39c-15-0.4-31.5-0.3-48.1,0.5c-2,0-3.8,0.3-4,0.5c-0.3,0.3,1,0.4,3,0.4c8.6,0.2,17.8,0.1,27.2-0.4
						c1.1-0.1,2.2,0,3.5-0.1c1.1,0,2.2-0.1,3.2-0.1c8.3-0.2,16.2-0.5,24.4-0.7c8.1-0.2,16-0.5,23.9-0.6c0.4,0,0.7,0,0.8-0.1
						c0,0-0.2-0.1-0.6-0.1C168.5,38.5,157.3,38.9,146.3,39z"/>
					<path class="st1" d="M145.3,37.6c-15-0.4-31.5-0.3-48.1,0.5c-2,0-3.8,0.3-4,0.5c-0.3,0.3,1,0.4,3,0.4
						c8.6,0.2,17.8,0.1,27.2-0.4c1.1-0.1,2.2,0,3.5-0.1c1.1,0,2.2-0.1,3.2-0.1c8.3-0.2,16.2-0.5,24.4-0.7c8.1-0.2,16-0.5,23.9-0.6
						c0.4,0,0.7,0,0.8-0.1c0,0-0.2-0.1-0.6-0.1C167.4,37.2,156.3,37.5,145.3,37.6z"/>
					<path class="st1" d="M179.1,35.3c0,0-0.2-0.1-0.6-0.1c-11.1,0.3-22.3,0.6-33.3,0.7c-15-0.4-31.5-0.3-48.1,0.5
						c-2,0-3.8,0.3-4,0.5c-0.3,0.3,1,0.4,3,0.4c8.6,0.2,17.8,0.1,27.2-0.4c1.1-0.1,2.2,0,3.5-0.1c1.1,0,2.2-0.1,3.2-0.1
						c8.3-0.2,16.2-0.5,24.4-0.7c8.1-0.2,16-0.5,23.9-0.6C178.7,35.4,179,35.4,179.1,35.3z"/>
					<path class="st1" d="M93.9,34.9c-2,0-3.8,0.3-4,0.5c-0.3,0.3,1,0.4,3,0.4c8.6,0.2,17.8,0.1,27.2-0.4c1.1-0.1,2.2,0,3.5-0.1
						c1.1,0,2.2-0.1,3.2-0.1c8.3-0.2,16.2-0.5,24.4-0.7c8.1-0.2,16-0.5,23.9-0.6c0.4,0,0.7,0,0.8-0.1c0,0-0.2-0.1-0.6-0.1
						C164.2,34,153,34.3,142,34.4C127,34,110.5,34.1,93.9,34.9z"/>
					<path class="st1" d="M114.3,33.8c1.1-0.1,2.2,0,3.5-0.1c1.1,0,2.2-0.1,3.2-0.1c8.3-0.2,16.2-0.5,24.4-0.7
						c8.1-0.2,16-0.5,23.9-0.6c0.4,0,0.7,0,0.8-0.1c0,0-0.2-0.1-0.6-0.1c-11.1,0.3-22.3,0.6-33.3,0.7c-15-0.4-31.5-0.3-48.1,0.5
						c-2,0-3.8,0.3-4,0.5c-0.3,0.3,1,0.4,3,0.4C95.6,34.4,104.8,34.3,114.3,33.8z"/>
					<path class="st1" d="M87,32.5c8.6,0.2,17.8,0.1,27.2-0.4c1.1-0.1,2.2,0,3.5-0.1c1.1,0,2.2-0.1,3.2-0.1
						c8.3-0.2,16.2-0.5,24.4-0.7c8.1-0.2,16-0.5,23.9-0.6c0.4,0,0.7,0,0.8-0.1c0,0-0.2-0.1-0.6-0.1c-11.1,0.3-22.3,0.6-33.3,0.7
						c-15-0.4-31.5-0.3-48.1,0.5c-2,0-3.8,0.3-4,0.5C83.7,32.4,85,32.6,87,32.5z"/>
					<path class="st1" d="M92.6,30.1c8.6,0.2,17.8,0.1,27.2-0.4c1.1-0.1,2.2,0,3.5-0.1c1.1,0,2.2-0.1,3.2-0.1
						c8.3-0.2,16.2-0.5,24.4-0.7c8.1-0.2,16-0.5,23.9-0.6c0.4,0,0.7,0,0.8-0.1c0,0-0.2-0.1-0.6-0.1c-11.1,0.3-22.3,0.6-33.3,0.7
						c-15-0.4-31.5-0.3-48.1,0.5c-2,0-3.8,0.3-4,0.5C89.3,29.9,90.7,30.1,92.6,30.1z"/>
					<path class="st1" d="M169.3,26.9c-11.1,0.3-22.3,0.6-33.3,0.7c-15-0.4-31.5-0.3-48.1,0.5c-2,0-3.8,0.3-4,0.5
						c-0.3,0.3,1,0.4,3,0.4c8.6,0.2,17.8,0.1,27.2-0.4c1.1-0.1,2.2,0,3.5-0.1c1.1,0,2.2-0.1,3.2-0.1c8.3-0.2,16.2-0.5,24.4-0.7
						c8.1-0.2,16-0.5,23.9-0.6c0.4,0,0.7,0,0.8-0.1C169.9,26.9,169.7,26.8,169.3,26.9z"/>
					<path class="st1" d="M87.9,26.6c-2,0-3.8,0.3-4,0.5c-0.3,0.3,1,0.4,3,0.4c8.6,0.2,17.8,0.1,27.2-0.4c1.1-0.1,2.2,0,3.5-0.1
						c1.1,0,2.2-0.1,3.2-0.1c8.3-0.2,16.2-0.5,24.4-0.7c8.1-0.2,16-0.5,23.9-0.6c0.4,0,0.7,0,0.8-0.1c0,0-0.2-0.1-0.6-0.1
						C158.2,25.7,147,26,136,26.1C121,25.7,104.5,25.8,87.9,26.6z"/>
					<path class="st1" d="M107.2,25.7c1.1-0.1,2.2,0,3.5-0.1c1.1,0,2.2-0.1,3.2-0.1c8.3-0.2,16.2-0.5,24.4-0.7
						c8.1-0.2,16-0.5,23.9-0.6c0.4,0,0.7,0,0.8-0.1c0,0-0.2-0.1-0.6-0.1c-11.1,0.3-22.3,0.6-33.3,0.7c-15-0.4-31.5-0.3-48.1,0.5
						c-2,0-3.8,0.3-4,0.5c-0.3,0.3,1,0.4,3,0.4C88.5,26.4,97.7,26.3,107.2,25.7z"/>
					<path class="st1" d="M76.9,24.1c0.3-0.3,2.1-0.5,4-0.5c16.6-0.8,33.1-0.9,48.1-0.5c9-0.1,18.1-0.3,27.2-0.5
						c0.1,0,0.1,0.1,0.2,0c0.4-0.1,0.9,0,1.3,0.1l0,0c-6.5,0.1-12.9,0.3-19.6,0.5c-8.2,0.2-16.1,0.5-24.4,0.7
						c-1.1,0-2.1,0.1-3.2,0.1c-1.2,0-2.3,0-3.5,0.1c-9.5,0.5-18.7,0.6-27.2,0.4C78,24.5,76.6,24.3,76.9,24.1z"/>
					<path class="st1" d="M151.7,21.1c-0.2,0-0.4,0-0.7,0l0,0c3.4-0.1,6.8-0.2,10.2-0.2c-0.1,0.1-0.3,0.2-0.5,0.2
						c-2.6,0-5.3,0.1-7.9,0.2C152.5,21,152.1,21.1,151.7,21.1z"/>
					<path class="st1" d="M76.9,22.4c0.3-0.3,2.1-0.5,4-0.5C97.5,21.1,114,21,129,21.4c6.7-0.1,13.5-0.2,20.2-0.4
						c-0.2,0.1-0.4,0.1-0.5,0.2c-3.5,0.1-6.9,0.2-10.5,0.3c-8.2,0.2-16.1,0.5-24.4,0.7c-1.1,0-2.1,0.1-3.2,0.1c-1.2,0-2.3,0-3.5,0.1
						c-9.5,0.5-18.7,0.6-27.2,0.4C77.9,22.9,76.6,22.7,76.9,22.4z"/>
					<path class="st1" d="M158.9,19.3c0,0,0.1-0.1,0-0.1c0.7,0,1.4,0,2,0c0,0,0,0-0.1,0.1c-0.1,0-0.2,0-0.3,0s-0.2,0-0.3,0
						c-0.3,0-0.5,0.1-0.7,0.1c-0.1,0-0.1,0-0.1,0c-0.1,0-0.3,0-0.4,0C159,19.3,159,19.3,158.9,19.3L158.9,19.3z"/>
					<path class="st1" d="M76.9,20.7c0.3-0.3,2.1-0.5,4-0.5c16.6-0.8,33.1-0.9,48.1-0.5c0.1,0,0.3,0,0.4,0c0.4,0,0.7,0,1.2,0
						c0,0,0.3,0,0.4,0c1.1-0.1,2.1,0.1,3.2,0.1c0.2,0,0.3-0.1,0.3-0.2c5.9-0.1,11.9-0.2,17.8-0.4h0.1c0.3,0,0.6,0,0.9,0h0.1
						c0.2,0,0.5,0,0.7,0l0,0c1.3-0.1,2.5,0,3.8-0.1c0,0,0,0.1,0.1,0.1c-6.6,0.1-13.1,0.4-19.9,0.5c-8.2,0.2-16.1,0.5-24.4,0.7
						c-1.1,0-2.1,0.1-3.2,0.1c-1.2,0-2.3,0-3.5,0.1c-9.5,0.5-18.7,0.6-27.2,0.4C77.9,21.2,76.5,21,76.9,20.7z"/>
					<path class="st1" d="M126.5,18.2c-15-0.4-31.5-0.3-48.1,0.5c-2,0-3.8,0.3-4,0.5c-0.3,0.3,1,0.4,3,0.4
						c8.6,0.2,17.8,0.1,27.2-0.4c1.1-0.1,2.2,0,3.5-0.1c1.1,0,2.2-0.1,3.2-0.1c2.2,0,4.3-0.1,6.5-0.2c1.1,0,2.1-0.1,3.2-0.1
						c1,0,2.1,0,3.1-0.1c0.5,0,1-0.1,1.4-0.1c0.5,0,0.9-0.1,1.3-0.1c0.6,0,1.3-0.1,1.9-0.1c0.7,0,1.4,0,2.1,0c0,0,0,0,0-0.1
						C129.4,18.1,128,18.1,126.5,18.2z"/>
					<path class="st1" d="M124.1,16.9c-0.4-0.1-0.8-0.2-1.3-0.2c-0.9,0-1.8,0-2.8,0c-15-0.4-31.5-0.3-48.1,0.5c-2,0-3.8,0.3-4,0.5
						c-0.3,0.3,1,0.4,3,0.4c8.6,0.2,17.8,0.1,27.2-0.4c1.1-0.1,2.2,0,3.5-0.1c1.1,0,2.2-0.1,3.2-0.1c6.3-0.1,12.4-0.4,18.5-0.5
						C123.6,16.9,123.8,16.9,124.1,16.9z"/>
					<path class="st1" d="M129.8,16.7c0.1,0,0.2,0,0.2-0.2c-0.7,0-1.5,0-2.2,0c-0.5,0.1,0,0.1,0,0.2c0.5-0.1,0.9-0.2,1.4-0.1
						c0.2,0,0.3,0,0.5,0C129.7,16.7,129.7,16.7,129.8,16.7z"/>
					<path class="st1" d="M151.7,16.7L151.7,16.7c0.4,0,0.8,0,1.2,0c0.5,0,1,0.1,1.4,0.1c0.2,0,0.4,0.1,0.5,0.1c-0.1,0-0.1,0-0.2,0
						c-0.2,0-0.3,0-0.5,0c-0.6,0-1.2-0.1-1.8-0.1c-1.2,0-2.3,0.1-3.5-0.1c-0.2,0-0.3,0.1-0.3,0.2C143.9,16.7,141.3,16.4,151.7,16.7z
						"/>
					<path class="st1" d="M161.4,16.7c0.1,0,0.2,0,0.2-0.2c-0.7,0-1.5,0-2.2,0c-0.5,0.1,0,0.1,0,0.2c0.5-0.1,0.9-0.2,1.4-0.1
						c0.2,0,0.3,0,0.5,0C161.3,16.7,161.4,16.7,161.4,16.7z"/>
					<path class="st1" d="M144.9,18.2c-0.4-0.1-0.8-0.1-1.3-0.1c-0.9,0-1.8,0-2.8,0c-15-0.3-2.8,0.3,3.3,0.2
						C144.4,18.2,144.6,18.2,144.9,18.2z"/>
				</g>
			</g>
		</g>
		<g>
			
				<linearGradient id="SVGID_9_" gradientUnits="userSpaceOnUse" x1="102.5999" y1="28.707" x2="515.7999" y2="28.707" gradientTransform="matrix(1 0 0 -1 0 71.8898)">
				<stop  offset="0" style="stop-color:#AC9E8C"/>
				<stop  offset="5.319959e-03" style="stop-color:#BDB09B"/>
				<stop  offset="1.257955e-02" style="stop-color:#CDC1A8"/>
				<stop  offset="2.161745e-02" style="stop-color:#D9CCB2"/>
				<stop  offset="3.429610e-02" style="stop-color:#DFD3B7"/>
				<stop  offset="6.950031e-02" style="stop-color:#E1D5B9"/>
				<stop  offset="0.5057" style="stop-color:#E1D5B9"/>
				<stop  offset="0.756" style="stop-color:#DFD3B7"/>
				<stop  offset="0.8461" style="stop-color:#D8CCB2"/>
				<stop  offset="0.9103" style="stop-color:#CDC1A8"/>
				<stop  offset="0.9619" style="stop-color:#BDB09B"/>
				<stop  offset="1" style="stop-color:#AC9E8C"/>
			</linearGradient>
			<path class="st8" d="M102.6,24.6c4.3,6.5,57.7,1.1,103.3-5.2c39.2-5.4,67.6-5.2,102.2-5.3c33.4-0.1,58.2,2.6,98.1,7.9
				c49.7,6.7,94.7,15.8,109.5,5.5l0.1,36.9c0,6.9-38.2,13.7-112.1-0.3c-26.4-5-66.5-8-96.7-8c-24.9,0-37.8-1.4-103.3,6.3
				c-40.5,4.8-87.3,6.7-99.2,2.1c-1.1-0.4-1.9-1.5-1.9-2.8L102.6,24.6L102.6,24.6z"/>
			<path class="st1" d="M102.6,24.5c0.1,0.1,0.3,0.2,0.4,0.3l0.3,0.3c0.2,0.2,0.4,0.3,0.7,0.4c0.5,0.2,1,0.4,1.5,0.6
				c1,0.3,2.1,0.5,3.2,0.6c2.1,0.3,4.3,0.4,6.5,0.5c4.3,0.1,8.7,0,13-0.2c8.7-0.4,17.3-1.2,25.9-2c17.2-1.7,34.4-3.9,51.6-6.3
				c17.2-2.5,34.5-4.1,51.9-4.8c17.4-0.8,34.7-0.8,52.1-0.8s34.8,0.8,52,2.5c17.3,1.7,34.5,4.1,51.7,6.4c17.2,2.4,34.3,5.2,51.5,7.3
				c8.6,1,17.2,1.9,25.8,2.1c4.3,0.1,8.6,0,12.9-0.5c4.2-0.6,8.5-1.5,12-3.8l1.1-0.7v1.3v30.8v3.9v1.9c0,0.3,0,0.8-0.1,1.1
				c-0.1,0.4-0.3,0.7-0.6,1c-1,1.1-2.2,1.7-3.4,2.3c-1.2,0.5-2.4,0.9-3.7,1.3c-5,1.4-10.2,2-15.3,2.4c-10.3,0.8-20.6,0.6-30.8,0
				c-10.3-0.6-20.5-1.7-30.7-3.1s-20.3-3.1-30.4-5c-10.1-1.8-20.3-3.1-30.5-4.1s-20.4-1.7-30.7-2.3c-10.2-0.5-20.5-0.8-30.8-0.8
				c-10.3,0.1-20.5-0.2-30.8,0.1c-10.2,0.2-20.5,0.9-30.7,1.8c-10.2,0.9-20.4,1.9-30.6,3c-10.4,0.8-20.6,2-30.9,3
				c-10.2,0.9-20.5,1.7-30.8,2.2s-20.5,0.7-30.8,0.4c-5.1-0.2-10.3-0.5-15.4-1.3c-1.3-0.2-2.5-0.5-3.8-0.8c-0.3-0.1-0.6-0.2-0.9-0.3
				c-0.3-0.1-0.6-0.2-1-0.4c-0.6-0.3-1.2-0.9-1.5-1.6c-0.3-0.7-0.3-1.5-0.3-2.1v-1.9v-3.9C102.4,44.9,102.6,34.6,102.6,24.5z
				 M102.7,24.6c0,10.3,0.2,20.6,0.3,30.8v3.8v1.9c0,0.7,0,1.2,0.3,1.7c0.2,0.5,0.7,0.9,1.1,1.2c0.2,0.1,0.6,0.2,0.8,0.3
				c0.3,0.1,0.6,0.2,0.9,0.3c1.2,0.3,2.5,0.6,3.7,0.8c5,0.8,10.2,1,15.3,1.1c10.2,0.2,20.5-0.2,30.7-0.7c10.2-0.6,20.5-1.4,30.7-2.4
				s20.4-2.3,30.6-3.4c10.2-1.2,20.4-2.2,30.7-3.1c10.2-0.8,20.5-1.5,30.8-1.7c10.3-0.2,20.6,0,30.8,0.1c10.3,0.1,20.6,0.5,30.8,1.2
				c10.3,0.6,20.5,1.5,30.7,2.6s20.4,2.4,30.5,4.3s20.2,3.7,30.4,5c10.2,1.4,20.4,2.4,30.6,3s20.5,0.7,30.7-0.1
				c5.1-0.4,10.2-1.1,15.1-2.4c1.2-0.4,2.4-0.8,3.6-1.3c1.1-0.5,2.2-1.1,3-2c0.2-0.2,0.3-0.4,0.4-0.7c0.1-0.2,0.1-0.4,0.1-0.8v-1.9
				v-3.8l-0.2-30.8l1.1,0.6c-3.8,2.6-8.2,3.6-12.5,4.2c-4.4,0.6-8.7,0.7-13.1,0.7c-8.7-0.1-17.4-1-26-1.9c-17.3-2-34.4-4.7-51.6-7.1
				c-17.2-2.3-34.4-4.6-51.6-6.3c-17.2-1.7-34.5-2.6-51.8-2.6s-34.7,0-52,0.6c-17.3,0.6-34.6,2.1-51.7,4.4
				c-17.2,2.3-34.4,4.4-51.7,5.9c-8.6,0.8-17.3,1.4-26,1.7c-4.3,0.1-8.7,0.2-13,0c-2.2-0.1-4.3-0.3-6.5-0.6
				c-1.1-0.2-2.1-0.4-3.2-0.7c-0.5-0.2-1-0.4-1.5-0.6c-0.2-0.1-0.5-0.3-0.7-0.4l-0.3-0.3C102.7,24.9,102.7,24.8,102.7,24.6z"/>
		</g>
	</g>
</g>
<g>
	<path class="st9" d="M121.9,54.9c0,0,0-0.2,0-0.3c0-0.2,0-0.3,0-0.3l0-0.1c0,0,0-0.1,0-0.2c0-0.1,0-0.3,0-0.4c0-0.1,0-0.3,0-0.4
		c0-0.1,0-0.2,0-0.3l0.1-3.4c0,0,0-0.1,0-0.2c0-0.1,0-0.3,0-0.4c0-0.1,0-0.3,0-0.4c0-0.1,0-0.2,0-0.2l0-0.3c0-0.9,0.1-1.8,0.1-2.7
		c0-0.9,0.1-1.8,0.1-2.7l0-1.4c0-0.1,0-0.2,0-0.3c0-0.1,0-0.2,0-0.3l0-0.1c0,0,0-0.1,0-0.1c0,0,0-0.1,0-0.1l0-0.2l0.2-0.2l0.9,0
		c0.6,0,1.2,0,1.7,0.1s1.1,0.1,1.7,0.1c0.4,0,0.7,0,1.1,0c0.3,0,0.7,0,1.1,0l1.1,0c0.2,0,0.4,0,0.6,0c0.2,0,0.4,0.1,0.4,0.3l0,1.4
		c0,0.2,0,0.3-0.1,0.5s-0.2,0.2-0.3,0.3l-0.6,0c0,0-0.1,0-0.2,0s-0.2,0-0.3,0c-0.1,0-0.2,0-0.3,0c-0.1,0-0.2,0-0.2,0l-3.8-0.1
		c-0.1,0-0.2,0.1-0.3,0.1s-0.2,0.1-0.2,0.2l-0.1,2.6c0,0,0,0,0.1,0.1c0,0.1,0,0.1,0,0.1c0,0.1,0.1,0.1,0.2,0.1
		c0.1,0,0.2,0.1,0.3,0.1c0.7,0,1.3,0,2,0c0.6,0,1.3,0,2,0l1.4,0c0.1,0,0.2,0,0.3,0.1s0.2,0.1,0.2,0.2l0,1.8c0,0.1,0,0.2-0.1,0.3
		c0,0.1-0.1,0.2-0.2,0.2l-1.5,0c0,0-0.1,0-0.3,0c-0.1,0-0.3,0-0.4,0s-0.3,0-0.4,0s-0.2,0-0.2,0l-2-0.1c0,0-0.1,0-0.3,0s-0.2,0-0.3,0
		l-0.2,0c-0.1,0-0.2,0-0.3,0.1c-0.1,0-0.2,0.1-0.2,0.2l0,0.1c0,0,0,0.1,0,0.3s0,0.3,0,0.4c0,0.2,0,0.3,0,0.4c0,0.1,0,0.2,0,0.3
		l-0.1,2.2c0,0,0,0.2,0,0.3c0,0.2,0,0.3,0,0.3l0,0.1c0.1,0.1,0.2,0.1,0.5,0.2s0.5,0,0.7,0c0.7,0,1.4,0,2,0c0.7,0,1.4,0,2.1,0l0.6,0
		c0.1,0.1,0.2,0.1,0.3,0.2c0,0.1,0.1,0.2,0.1,0.4l0,0.9c0,0.2,0,0.4-0.1,0.6s-0.2,0.3-0.4,0.3c-0.1,0-0.3,0-0.6,0s-0.6,0-1,0
		s-0.8,0-1.3,0c-0.4,0-0.9,0-1.2,0c-0.4,0-0.7,0-1,0s-0.5,0-0.6,0l-2.5-0.1C122,55.1,121.9,55.1,121.9,54.9z"/>
	<path class="st9" d="M134,40.4L134,40.4L134,40.4c-0.1-0.3,0.1-0.4,0.3-0.4c0.2,0,0.4,0,0.6,0.1c0.2,0.1,0.4,0.1,0.6,0.1l1.2,0
		c0,0,0.1,0,0.2,0s0.1,0,0.2,0.1c0,0,0.1,0.1,0.1,0.2c0.1,0.1,0.2,0.3,0.2,0.4c0.1,0.1,0.2,0.3,0.3,0.6l0.1,0c0,0-0.1,0.1-0.1,0.1
		l0.1,0l0.3,0.6c0,0,0,0.1,0.1,0.1c0.1,0.1,0.1,0.1,0.2,0.2c0,0,0,0,0,0s0,0,0,0l0,0c0,0,0,0,0.1,0c0,0,0,0,0,0c0,0,0,0,0,0.1l0,0.1
		c0,0,0,0,0,0l0,0.1h0l0.5,0.8c0,0,0,0.1,0.1,0.2c0.1,0.1,0.1,0.1,0.1,0.2l0.3,0.5c0,0,0.1,0.1,0.2,0.2s0.1,0.2,0.2,0.2
		c0,0,0.1,0,0.1-0.1c0,0,0,0,0,0c0,0,0-0.1,0-0.1c0,0,0,0,0,0.1l1.7-2.9c0,0,0.1-0.1,0.2-0.3c0.1-0.1,0.1-0.2,0.1-0.2
		c0.1-0.2,0.2-0.4,0.3-0.7c0.1-0.2,0.3-0.4,0.5-0.6c0,0,0,0,0-0.1c0,0,0-0.1,0.1-0.1c0,0,0,0,0,0.1l0.2,0c0,0,0.1,0,0.2,0
		s0.2,0,0.2,0l1.9,0c0.1,0,0.1,0.1,0.1,0.1s0.1,0.1,0.1,0.2l0,0c0,0.2-0.1,0.3-0.2,0.4c-0.1,0.1-0.2,0.2-0.2,0.3l-0.2,0.5
		c0,0.1-0.1,0.2-0.3,0.4c-0.1,0.1-0.2,0.3-0.3,0.4c-0.2,0.2-0.3,0.5-0.4,0.7c-0.1,0.3-0.3,0.5-0.4,0.8c-0.2,0.3-0.3,0.5-0.5,0.8
		c-0.2,0.3-0.3,0.5-0.5,0.8l-0.1,0.1l-0.2,0.2l0,0c0,0.1-0.1,0.1-0.1,0.2c0,0-0.1,0.1-0.1,0.2l-0.3,0.5c-0.1,0.1-0.1,0.2-0.2,0.3
		s-0.1,0.2-0.1,0.4l0,0.1c0,0.1,0,0.1,0.1,0.1c0,0.1,0.1,0.1,0.1,0.1c0,0,0,0,0,0l0,0c0.1,0.2,0.2,0.4,0.3,0.5
		c0.1,0.1,0.2,0.3,0.3,0.4s0.2,0.2,0.3,0.3c0.2,0.2,0.3,0.4,0.5,0.7s0.3,0.5,0.5,0.8s0.3,0.6,0.5,0.8c0.2,0.3,0.4,0.5,0.7,0.7l0,0
		c0,0.1,0.1,0.2,0.1,0.2c0,0.1,0.1,0.2,0.1,0.2c0,0.1,0.1,0.1,0.1,0.2l0.1,0.2l0,0l0.1,0c0,0.1,0.1,0.2,0.2,0.4
		c0.1,0.2,0.2,0.3,0.4,0.5c0.1,0.2,0.3,0.4,0.4,0.7s0.2,0.5,0.2,0.7c0,0.1,0,0.1-0.1,0.1s-0.2,0.1-0.3,0.1c-0.1,0-0.3,0-0.4,0
		c-0.1,0-0.3,0-0.4,0l-0.3,0c-0.3,0-0.6,0-0.8,0c-0.3,0-0.5-0.1-0.6-0.3l-1.2-2.1c-0.2-0.3-0.4-0.6-0.5-0.8
		c-0.2-0.3-0.3-0.6-0.5-0.8c-0.1-0.1-0.1-0.2-0.2-0.4s-0.2-0.3-0.3-0.5c-0.1-0.1-0.2-0.3-0.3-0.4c-0.1-0.1-0.2-0.1-0.2-0.1
		c-0.1,0-0.1,0-0.2,0.1l0,0.1c-0.2,0.2-0.4,0.4-0.5,0.6c-0.1,0.3-0.2,0.5-0.3,0.8c-0.2,0.4-0.5,0.8-0.7,1.2
		c-0.2,0.4-0.5,0.8-0.7,1.2l-0.5,1.1c-0.1,0.1-0.1,0.2-0.2,0.2c0,0.1-0.1,0.1-0.2,0.2c-0.1,0-0.1,0.1-0.3,0.1c-0.1,0-0.2,0-0.4,0
		c-0.5,0.1-1,0.1-1.5,0.1c-0.1,0-0.2,0-0.3,0c-0.1,0-0.2,0-0.2-0.1l0-0.1c0,0,0,0,0,0s0,0,0,0l0-0.2c0-0.4,0.1-0.7,0.3-1
		c0.2-0.3,0.4-0.6,0.6-0.9l0.8-1.4c0.3-0.5,0.6-0.9,0.8-1.4s0.6-0.9,0.8-1.4l0.7-1.1c0.1-0.2,0.2-0.3,0.2-0.4c0-0.1,0.1-0.2,0.2-0.4
		h0c0-0.1-0.1-0.3-0.2-0.4c-0.1-0.1-0.2-0.2-0.2-0.4l0-0.1c0,0-0.1-0.1-0.1-0.1s-0.1-0.1-0.1-0.1c-0.1-0.3-0.3-0.7-0.5-0.9
		c-0.2-0.3-0.4-0.5-0.6-0.8l-0.9-1.4c-0.2-0.2-0.3-0.5-0.5-0.7s-0.3-0.4-0.5-0.7c0-0.1,0-0.1-0.1-0.2c-0.1-0.1-0.2-0.2-0.2-0.3
		c-0.1-0.1-0.2-0.2-0.3-0.3C134,40.7,134,40.6,134,40.4L134,40.4C134,40.5,134,40.5,134,40.4C134,40.4,134,40.4,134,40.4z
		 M133.9,40.5L133.9,40.5L133.9,40.5z M138.3,47.3C138.3,47.3,138.3,47.3,138.3,47.3c0,0.1,0,0.1,0,0.1L138.3,47.3L138.3,47.3
		C138.4,47.3,138.4,47.3,138.3,47.3z M138.4,47.2C138.3,47.2,138.3,47.2,138.4,47.2c0,0.1,0,0.1,0,0.1
		C138.4,47.3,138.4,47.3,138.4,47.2C138.4,47.2,138.4,47.2,138.4,47.2z"/>
	<path class="st9" d="M149,55c-0.1,0-0.1,0-0.1-0.1c0-0.1-0.1-0.1-0.1-0.2l0-0.7c0-0.6,0-1.1,0-1.7c0-0.6,0-1.1,0-1.6l0-0.1
		c0-0.1,0-0.2,0-0.4c0-0.2,0-0.4,0-0.7c0-0.3,0-0.5,0-0.7c0-0.2,0-0.3,0-0.4c0-0.1,0-0.2,0-0.4c0-0.2,0-0.3,0-0.4l-0.3-5.7
		c0,0,0-0.1,0-0.1c0-0.1,0-0.1,0-0.2s0-0.1,0-0.2c0-0.1,0-0.1,0-0.1l0-1c0.1-0.2,0.2-0.4,0.4-0.5s0.4-0.1,0.6-0.1c0,0,0.1,0,0.3,0
		c0.2,0,0.3,0,0.5,0c0.2,0,0.4,0,0.5,0c0.2,0,0.3,0,0.3,0c0.3,0,0.6,0,1,0s0.7,0,1.1,0s0.7,0,1,0.1c0.3,0,0.7,0.1,1,0.2l0.4,0.1l0,0
		c0,0,0.1,0.1,0.2,0.2c0.2,0.1,0.3,0.2,0.5,0.4c0.2,0.2,0.4,0.3,0.6,0.6c0.2,0.2,0.4,0.5,0.5,0.8c0.2,0.3,0.3,0.7,0.3,1
		c0,0.3,0.1,0.7,0.2,1l0,0.4c0,0.6-0.1,1.2-0.3,1.7c-0.2,0.5-0.6,1-1,1.5l-0.4,0.4c-0.1,0.1-0.3,0.2-0.4,0.2
		c-0.1,0.1-0.2,0.1-0.3,0.2s-0.2,0.1-0.2,0.1c0,0-0.1,0-0.1,0l0,0l-1.4,0.4l-2.4,0.1c-0.1,0-0.1,0-0.2,0.1c0,0.1,0,0.1,0,0.2l0,0.1
		c0.1,0.7,0.1,1.4,0.2,2c0,0.7,0.1,1.3,0.1,2l0.1,1.4c0,0.1-0.1,0.1-0.1,0.2c0,0.1-0.1,0.1-0.2,0.1L149,55L149,55z M151.4,46.4
		c0.1,0,0.1,0,0.2,0l0.4,0c0.3,0,0.7-0.1,1.1-0.1c0.4-0.1,0.8-0.2,1.1-0.3c0.3-0.2,0.6-0.4,0.8-0.7c0.2-0.3,0.3-0.7,0.3-1.2
		c0-0.9-0.3-1.5-0.9-1.8c-0.6-0.3-1.4-0.4-2.4-0.4l-0.1,0c-0.1,0-0.2,0-0.3,0c-0.2,0-0.2,0-0.3,0c-0.2,0.1-0.3,0.3-0.3,0.6
		c0,0.3,0,0.7,0,1l0.1,1.7c0,0,0,0.1,0,0.2s0,0.2,0,0.2l0,0.5c0,0,0,0.1,0,0.1c0,0,0,0,0,0.1l0,0L151.4,46.4z M151.5,54.6
		C151.4,54.6,151.4,54.6,151.5,54.6C151.4,54.6,151.4,54.7,151.5,54.6C151.4,54.7,151.4,54.7,151.5,54.6L151.5,54.6L151.5,54.6
		C151.5,54.6,151.5,54.6,151.5,54.6z"/>
	<path class="st9" d="M160.5,54.4c0,0-0.1-0.1-0.2-0.1c-0.1,0-0.1-0.1-0.1-0.2l-0.5-8.3c0,0,0-0.1,0-0.1c0-0.1,0-0.1,0-0.2
		c0-0.1,0-0.1,0-0.2c0-0.1,0-0.1,0-0.1l0-0.5c0-0.2,0-0.3,0-0.4c0-0.1,0-0.3,0-0.4c0-0.4-0.1-0.9-0.2-1.3c-0.1-0.5-0.1-0.9-0.1-1.3
		c0-0.4-0.1-0.8-0.1-1.1s0-0.5,0-0.6c0-0.1,0-0.2,0.1-0.3c0.1-0.1,0.2-0.1,0.3-0.2l1.3-0.1c0.1,0,0.1,0,0.2,0c0.1,0,0.2,0,0.3,0
		c0.1,0,0.2,0,0.3,0l0.2,0.2l0.8,12.4c0,0,0.1,0.1,0.2,0.1c0.1,0,0.2,0.1,0.2,0.1l4.1-0.3c0.1,0,0.1,0,0.1,0.1
		c0,0.1,0.1,0.2,0.1,0.3c0,0.1,0,0.2,0,0.3s0,0.2,0,0.2c0,0.1,0,0.2,0,0.4c0,0.2,0,0.3,0,0.5c0,0.2,0,0.3-0.1,0.4S167.1,54,167,54
		c0,0-0.1,0-0.2,0c-0.1,0-0.2,0-0.2,0l-0.2,0c-1,0.1-2,0.1-2.9,0.2S161.5,54.4,160.5,54.4z"/>
	<path class="st9" d="M167.9,45.7c0-0.3,0-0.5,0-0.8c0-0.3,0.1-0.5,0.1-0.8l0.1-0.5l0.1-0.1l0-0.3l0.3-0.9c0.2-0.6,0.5-1.2,0.9-1.7
		s0.8-0.9,1.3-1.3c0.5-0.4,1-0.7,1.6-1c0.6-0.3,1.2-0.5,1.8-0.6l0.1,0c0,0,0.1,0,0.1,0s0.1,0,0.1,0l0.1,0l0.1-0.1
		c0,0,0.1-0.1,0.1-0.1c0,0,0.1,0,0.2,0l0,0.1c0,0,0,0,0.1-0.1s0,0,0.1,0l0.1,0c0.1,0,0.1,0,0.1,0l0.5,0c0.5,0,1,0,1.5,0.1
		c0.6,0.1,1.1,0.3,1.7,0.5c0.6,0.2,1.1,0.5,1.7,0.9c0.5,0.4,1,0.8,1.4,1.2c0.1,0.1,0.2,0.2,0.3,0.3c0.1,0.2,0.2,0.3,0.3,0.5
		c0.1,0.2,0.2,0.4,0.3,0.6c0.1,0.2,0.2,0.4,0.3,0.5c0.1,0.1,0.2,0.2,0.2,0.3s0.1,0.3,0.1,0.5c0,0,0,0,0,0.1c0,0,0,0,0,0.1
		c0,0,0,0,0,0l0,0c0.1,0.1,0.1,0.2,0.1,0.3c0,0.1,0,0.2,0,0.4c0,0.2,0.1,0.4,0.1,0.6c0,0.2,0.1,0.4,0.1,0.5c0,0.5,0,1,0,1.5
		c-0.1,0.5-0.1,1-0.3,1.5l-0.2,0.7c-0.2,0.5-0.4,1-0.8,1.4s-0.6,0.9-1,1.2l-0.4,0.4c-0.2,0.1-0.5,0.3-0.8,0.5
		c-0.3,0.2-0.5,0.3-0.8,0.5c-0.3,0.2-0.6,0.3-0.8,0.4c-0.3,0.1-0.5,0.2-0.8,0.2l-0.4,0c-0.2,0-0.3,0-0.5,0.1
		c-0.2,0.1-0.3,0.1-0.5,0.1c-0.8,0.1-1.6,0-2.3-0.1l-0.1,0c-0.3,0-0.7-0.1-1-0.2s-0.7-0.3-1-0.4c-0.7-0.3-1.3-0.7-1.8-1.1
		c-0.5-0.5-1-1-1.4-1.6c-0.4-0.6-0.7-1.2-1-1.9c-0.2-0.7-0.4-1.4-0.5-2.1L167.9,45.7z M168.3,43.2C168.2,43.2,168.2,43.2,168.3,43.2
		L168.3,43.2L168.3,43.2L168.3,43.2C168.3,43.2,168.3,43.2,168.3,43.2z M172.3,49.5c0.5,0.4,0.9,0.8,1.4,1c0.5,0.2,1,0.4,1.6,0.5
		c0.1,0,0.2,0,0.3,0c0.1,0,0.1,0,0.2,0.1l0.6-0.1c0.4,0,0.8-0.1,1.2-0.2c0.4-0.1,0.8-0.3,1.2-0.5c0.4-0.2,0.7-0.5,1.1-0.8
		c0.3-0.3,0.6-0.6,0.8-1c0.2-0.3,0.3-0.6,0.4-0.8s0.2-0.5,0.3-0.8c0.1-0.3,0.1-0.5,0.1-0.8s0-0.5,0-0.8l0-0.1c0-0.1,0-0.2,0-0.3
		c0-0.1,0-0.2,0-0.3l0-0.5c-0.1-0.4-0.2-0.7-0.3-1c-0.1-0.3-0.3-0.6-0.5-0.9l0-0.1c-0.5-0.7-1-1.2-1.7-1.6c-0.7-0.4-1.5-0.6-2.4-0.7
		l-0.3,0c0,0,0,0-0.1,0s-0.1,0-0.1,0l-0.3,0c-0.8,0.1-1.6,0.3-2.3,0.7c-0.7,0.4-1.3,0.9-1.8,1.6l-0.2,0.5c-0.1,0-0.1,0.1-0.2,0.2
		c0,0.1-0.1,0.2-0.1,0.3s-0.1,0.3-0.1,0.4c0,0.1-0.1,0.3-0.1,0.4l0,0.1c-0.1,0.3-0.1,0.7-0.1,0.9c0,0.3,0,0.6,0,0.9c0,0,0,0.1,0,0.3
		c0,0.2,0,0.3,0,0.3c0.1,0.1,0.1,0.3,0.1,0.5c0,0.2,0.1,0.4,0.2,0.5c0,0.1,0.1,0.1,0.1,0.1s0.1,0.1,0.1,0.1l0.1,0
		c0,0.3,0.1,0.6,0.4,0.8c0.2,0.2,0.4,0.5,0.6,0.7C172.2,49.4,172.3,49.5,172.3,49.5z"/>
	<path class="st9" d="M189.4,46.8C189.5,46.8,189.5,46.8,189.4,46.8c0,0.1,0,0.1,0,0.1C189.4,46.9,189.4,46.9,189.4,46.8l0,0.3
		c0,0,0.1,0.1,0.1,0.1c0,0.1,0,0.1,0,0.1l0,0.2l0.1,0.1l0.1,0.5c0,0.1,0,0.2,0,0.3c0,0.1,0,0.2,0,0.3l0,0c0.1,0.3,0.1,0.6,0.1,0.9
		c0,0.3,0.1,0.6,0.1,0.8c0,0,0,0.1,0.1,0.2c0,0.1,0.1,0.1,0.1,0.1c0,0,0,0.1,0,0.1c0,0.1,0,0.1,0,0.1c0.1,0,0.1,0.1,0.1,0.3
		c0,0.2,0,0.3-0.1,0.4c-0.1,0.1-0.2,0.2-0.3,0.2c-0.1,0.1-0.2,0.1-0.4,0.1c-0.1,0-0.3,0-0.4,0.1l-0.4,0c0,0-0.1,0-0.2,0
		c-0.1,0-0.2,0-0.3,0c-0.1,0-0.2,0-0.3,0c-0.1,0-0.2,0-0.2,0l0,0c-0.1,0-0.1,0-0.1-0.1l-0.1,0c0,0,0-0.1,0-0.1c0-0.1,0-0.1,0-0.1
		c-0.1-0.2-0.1-0.4-0.1-0.5c0-0.2,0-0.3-0.1-0.5c0-0.4-0.1-0.8-0.1-1.3c0-0.4-0.1-0.8-0.1-1.3l-0.1-0.6c0,0-0.1-0.1-0.1-0.2l0-0.1
		c0,0,0-0.1,0-0.2c0-0.1,0-0.1,0-0.1l0-0.3c0,0,0,0,0-0.1c0-0.1,0-0.1,0-0.1c0,0,0-0.1-0.1-0.2s0-0.2-0.1-0.2c0,0,0-0.1,0-0.3
		c0-0.1,0-0.3,0-0.5c0-0.2,0-0.3,0-0.5s0-0.2,0-0.3l-0.1-1.1c0-0.1,0-0.3-0.1-0.4c0-0.1-0.1-0.2-0.1-0.3c0,0,0-0.1,0-0.2l-0.2-2.4
		c0,0,0,0,0,0c0,0,0,0,0-0.1l0,0c0,0,0,0,0,0l-0.3-2.7c0-0.1,0-0.1,0-0.2c0-0.1,0.1-0.1,0.1-0.2c0,0,0.1,0,0.2,0
		c0.1,0,0.3-0.1,0.5-0.1c0.2,0,0.4-0.1,0.5-0.1c0.2,0,0.3,0,0.5-0.1c0.3,0,0.6-0.1,0.9-0.1c0.2,0,0.4,0,0.6,0c0.2,0,0.3,0,0.5,0
		c0.1,0,0.3,0,0.5,0l0.8-0.1c0.5,0,0.9,0,1.4,0.1s0.9,0.3,1.3,0.5c0,0,0.1,0,0.1,0.1s0.1,0.1,0.2,0.1c0.1,0.1,0.2,0.2,0.3,0.4
		c0.1,0.1,0.2,0.2,0.4,0.4l0.3,0.2c0.1,0.1,0.2,0.2,0.3,0.4c0.1,0.2,0.2,0.4,0.2,0.6c0.1,0.2,0.1,0.5,0.2,0.7c0,0.2,0.1,0.5,0.1,0.7
		c0,0.4,0,0.9,0,1.3c-0.1,0.4-0.2,0.8-0.4,1.2c-0.2,0.4-0.4,0.7-0.8,1c-0.3,0.3-0.8,0.6-1.3,0.8c-0.1,0-0.1,0-0.2,0.1
		s-0.1,0.1-0.2,0.2l0.1,0.1l0,0c0,0,0.1,0,0.1,0.1l0.3,0.3c0,0.1,0.1,0.1,0.2,0.2c0.1,0,0.2,0.1,0.2,0.2l0,0.2l0.1,0.2l0.1,0
		c0,0,0.1,0.1,0.1,0.1c0.1,0.1,0.1,0.1,0.1,0.2l0.2,0.2c0.1,0.1,0.2,0.3,0.3,0.4s0.2,0.3,0.3,0.4l0.8,0.9l0,0.1
		c0.1,0.1,0.1,0.1,0.1,0.1l0.1,0l0,0c0,0,0,0,0,0c0,0,0,0,0,0l0.3,0.3c0,0,0.1,0.1,0.2,0.2c0.1,0.1,0.3,0.3,0.4,0.5
		c0.1,0.2,0.3,0.4,0.4,0.6c0.1,0.2,0.2,0.3,0.2,0.5c0,0,0,0.1,0,0.1c0,0,0,0.1,0,0.1l0,0c0,0.1,0,0.1-0.2,0.2
		c-0.1,0-0.2,0.1-0.3,0.1c-0.1,0-0.1,0-0.1-0.1c-0.2,0-0.3,0.1-0.5,0.1s-0.3,0-0.5,0.1c-0.4,0-0.7,0-0.9,0s-0.4-0.1-0.5-0.2
		c-0.1-0.1-0.3-0.3-0.4-0.4s-0.2-0.4-0.4-0.6l-0.4-0.4c-0.4-0.5-0.8-1-1.2-1.4c-0.4-0.4-0.7-0.9-1.1-1.3l-0.3-0.4
		c-0.1-0.1-0.2-0.2-0.3-0.3c0-0.2-0.1-0.3-0.3-0.3l-0.1-0.1c-0.1,0-0.1,0-0.2-0.1c-0.1-0.1-0.1-0.1-0.2-0.1c-0.1,0-0.1,0-0.2,0.1
		c-0.1,0-0.1,0.1-0.1,0.2L189.4,46.8C189.4,46.8,189.4,46.8,189.4,46.8z M188.6,39.5C188.6,39.5,188.6,39.5,188.6,39.5
		c0,0.1,0,0.1,0,0.1C188.7,39.6,188.7,39.6,188.6,39.5C188.7,39.5,188.6,39.4,188.6,39.5z M188.7,40.1
		C188.7,40.1,188.7,40.1,188.7,40.1L188.7,40.1L188.7,40.1C188.7,40.2,188.7,40.2,188.7,40.1l0,0.1c0,0.2,0,0.3,0.1,0.5
		c0,0.2,0.1,0.3,0.1,0.4c0,0,0,0.1,0,0.1l0,0c0,0,0,0,0,0c0,0,0,0,0,0.1c0,0,0,0,0,0.1c0,0.1,0,0.1,0.1,0.2l0.2,1.6
		c0,0.2,0.1,0.3,0.2,0.4l0,0c0,0,0-0.1,0.1-0.1l0,0c0,0,0,0,0,0c0,0,0,0,0,0c0,0,0,0,0,0s0,0,0,0l0,0c0.1,0.1,0.2,0.1,0.4,0.1
		c0.4,0,0.7-0.1,1-0.1c0.3,0,0.6-0.1,0.8-0.2c0.2-0.1,0.5-0.2,0.7-0.4c0.2-0.2,0.4-0.4,0.6-0.7c0-0.1,0-0.1,0.1-0.2
		c0.1-0.1,0.1-0.2,0.1-0.2l0-0.2c0,0,0-0.1,0-0.2s0-0.1,0.1-0.2l0-0.2l-0.1,0l0-0.5c0,0-0.1,0-0.1-0.1c0,0,0-0.1,0-0.1l0,0
		c0-0.2-0.1-0.4-0.2-0.5c-0.1-0.2-0.3-0.3-0.5-0.4c-0.2-0.1-0.4-0.2-0.6-0.3c-0.2-0.1-0.4-0.1-0.5-0.1c0,0-0.1,0-0.2,0
		c-0.1,0-0.2,0-0.3,0c-0.1,0-0.2,0-0.2,0c0,0-0.1,0-0.2,0l-0.6,0.1c-0.2,0-0.4,0-0.5,0.1c-0.1,0-0.2,0.1-0.2,0.2l0.1,0l0,0.1l0,0
		c0,0.1,0,0.2,0,0.3C188.7,40,188.6,40.1,188.7,40.1C188.6,40.1,188.6,40.1,188.7,40.1z M188.7,39.3
		C188.7,39.3,188.7,39.3,188.7,39.3c0.1,0.1,0,0.1,0,0.1C188.7,39.4,188.7,39.4,188.7,39.3C188.7,39.3,188.7,39.3,188.7,39.3z
		 M189.1,43.4C189.1,43.4,189.2,43.4,189.1,43.4L189.1,43.4C189.1,43.4,189.1,43.4,189.1,43.4C189.1,43.4,189.1,43.4,189.1,43.4z
		 M197.3,51.1L197.3,51.1C197.2,51.1,197.2,51.1,197.3,51.1C197.2,51.2,197.2,51.2,197.3,51.1L197.3,51.1z"/>
	<path class="st9" d="M199.9,50.8c0,0,0-0.2-0.1-0.3s-0.1-0.3-0.1-0.3l0-0.1c0,0,0-0.1,0-0.2c0-0.1,0-0.3,0-0.4c0-0.1,0-0.3,0-0.4
		c0-0.1,0-0.2,0-0.3l-0.4-3.3c0,0,0-0.1,0-0.2c0-0.1,0-0.3-0.1-0.4s0-0.3-0.1-0.4c0-0.1,0-0.2,0-0.2l0-0.3c-0.1-0.9-0.2-1.8-0.3-2.7
		c-0.1-0.9-0.2-1.8-0.3-2.7l-0.2-1.4c0-0.1-0.1-0.2-0.1-0.3c0-0.1,0-0.2,0-0.3l0-0.1c0,0,0-0.1,0-0.1s0-0.1,0-0.1l0-0.1l0.2-0.2
		l0.9-0.1c0.6-0.1,1.2-0.1,1.7-0.2c0.6,0,1.1-0.1,1.7-0.2c0.4,0,0.7-0.1,1.1-0.2c0.3-0.1,0.7-0.1,1.1-0.2l1.1-0.1c0.2,0,0.4,0,0.6,0
		c0.2,0,0.4,0.1,0.4,0.2l0.2,1.4c0,0.2,0,0.3,0,0.5s-0.1,0.3-0.3,0.4l-0.6,0.1c0,0-0.1,0-0.2,0c-0.1,0-0.2,0-0.3,0
		c-0.1,0-0.2,0-0.3,0c-0.1,0-0.2,0-0.2,0l-3.7,0.4c-0.1,0-0.2,0.1-0.3,0.1s-0.1,0.1-0.1,0.2l0.3,2.6c0,0,0,0,0.1,0.1
		c0,0.1,0,0.1,0,0.1c0.1,0.1,0.1,0.1,0.2,0.1c0.1,0,0.2,0,0.3,0c0.7-0.1,1.3-0.2,1.9-0.3s1.3-0.2,2-0.3l1.4-0.2c0.1,0,0.2,0,0.3,0
		c0.1,0,0.2,0.1,0.2,0.1l0.2,1.8c0,0.1,0,0.2,0,0.3c0,0.1-0.1,0.2-0.2,0.2L206,43c0,0-0.1,0-0.3,0s-0.3,0-0.4,0c-0.2,0-0.3,0-0.4,0
		c-0.1,0-0.2,0-0.2,0l-1.9,0.2c0,0-0.1,0-0.3,0c-0.1,0-0.2,0-0.3,0l-0.2,0c-0.1,0-0.2,0-0.3,0.1s-0.2,0.1-0.2,0.3l0,0.1
		c0,0,0,0.1,0,0.2c0,0.1,0,0.3,0.1,0.4c0,0.2,0,0.3,0.1,0.4s0,0.2,0,0.2l0.3,2.2c0,0,0,0.2,0.1,0.3c0,0.2,0.1,0.3,0.1,0.3l0,0.1
		c0.1,0.1,0.3,0.1,0.5,0.1c0.3,0,0.5,0,0.7-0.1c0.7-0.1,1.4-0.2,2-0.3c0.7-0.1,1.4-0.2,2-0.3l0.6-0.1c0.2,0,0.3,0.1,0.3,0.2
		s0.1,0.2,0.1,0.4l0.1,0.9c0,0.2,0,0.4,0,0.6c0,0.2-0.1,0.3-0.3,0.3c-0.1,0-0.3,0-0.6,0.1c-0.3,0-0.6,0.1-1,0.1
		c-0.4,0.1-0.8,0.1-1.2,0.2c-0.4,0.1-0.8,0.1-1.2,0.2c-0.4,0.1-0.7,0.1-1,0.1c-0.3,0-0.5,0.1-0.6,0.1l-2.5,0.3
		C200,51,199.9,50.9,199.9,50.8z"/>
	<path class="st9" d="M222.5,48.4c-0.1,0-0.2-0.1-0.2-0.2c0-0.2-0.1-0.3-0.1-0.5c0-0.2,0-0.3,0-0.5c0-0.1,0-0.2,0-0.3
		c0-0.1,0-0.2,0-0.3c0-0.1,0-0.2,0-0.3l-0.2-1.5c0,0,0-0.2,0-0.3s0-0.4,0-0.6c0-0.2,0-0.4,0-0.6s0-0.3,0-0.3l-0.3-3.1
		c0-0.2,0-0.5,0-0.8c0-0.2,0-0.3-0.1-0.5s0-0.3-0.1-0.4c0,0,0-0.1,0-0.2c0-0.1,0-0.2,0-0.2l-0.2-1.8l0,0c0,0,0,0,0,0c0,0,0,0,0,0
		s0,0,0-0.1l-0.1,0c0,0-0.1,0-0.1,0c0,0,0,0,0,0l-0.8,0.1c-0.4,0-0.7,0.1-1.1,0.1c-0.3,0.1-0.7,0.1-1.1,0.1c0,0-0.1,0-0.3,0
		c-0.2,0-0.2,0-0.2-0.1c0,0,0,0,0-0.1c0,0-0.1-0.1-0.1-0.2c0-0.1,0-0.2-0.1-0.3s0-0.2-0.1-0.3s0-0.2,0-0.2l0-0.3c0-0.2,0-0.4,0-0.6
		c0-0.2,0.1-0.3,0.3-0.3l1.1-0.1c0,0,0.1,0,0.3,0s0.3,0,0.5,0s0.3,0,0.5,0c0.2,0,0.3,0,0.3,0l4.9-0.5c0,0,0.1,0,0.2,0
		c0.1,0,0.2,0,0.4-0.1s0.3,0,0.4-0.1c0.1,0,0.2,0,0.2,0l0.1,0c0.1,0,0.2,0,0.3,0c0.1,0,0.2,0,0.3,0.1l0,0c0,0,0,0,0,0c0,0,0,0,0,0
		l0,0.4c0,0,0,0.1,0,0.2c0,0.1,0,0.2,0,0.3c0,0.1,0,0.2,0,0.3s0,0.1,0,0.1l0,0.4c0,0.1,0,0.2,0,0.4c0,0.1-0.1,0.2-0.2,0.3l-0.4,0
		c-0.3,0-0.7,0.1-1,0.1c-0.3,0-0.7,0.1-1.1,0.1l-0.7,0.1l-0.2,0.2c0,0.1,0,0.3,0.1,0.5c0,0.2,0.1,0.5,0.1,0.8c0,0.3,0.1,0.5,0.1,0.8
		c0,0.2,0.1,0.4,0.1,0.5l0.5,4.9c0,0,0,0.1,0,0.2c0,0.1,0,0.2,0,0.4c0,0.1,0,0.3,0,0.4s0,0.2,0,0.2l0.1,0.5c0,0.4,0.1,0.8,0.2,1.2
		s0.1,0.8,0.2,1.2l0.1,0.8c0,0.2,0,0.3-0.2,0.3l-0.6,0.1c-0.1,0-0.2,0-0.3,0s-0.3,0-0.5,0s-0.3,0-0.5,0
		C222.7,48.3,222.6,48.4,222.5,48.4z"/>
	<path class="st9" d="M230.9,46.7c0,0,0-0.1,0-0.2c0-0.1,0-0.2,0-0.3c0-0.1,0-0.2,0-0.3c0-0.1,0-0.1,0-0.2c0-0.2,0-0.4-0.1-0.5
		s-0.1-0.4-0.1-0.5c0-0.2,0-0.4,0-0.5c0-0.2,0-0.4,0-0.6l-0.7-7.4c0,0,0-0.1-0.1-0.2c0-0.1,0-0.2-0.1-0.3c0-0.1,0-0.2,0-0.3
		c0-0.1,0-0.2,0-0.2l-0.3-2.7l0.1-0.2c0,0,0.1,0,0.2,0s0.2,0,0.3,0s0.2,0,0.4-0.1c0.1,0,0.2,0,0.3,0l0.3,0l0.4,0
		c0.1,0,0.3,0,0.4,0.1c0.1,0.1,0.2,0.2,0.3,0.5c0.1,0.5,0.1,1,0.1,1.5s0.1,1,0.1,1.5l0.1,0.7c0,0.1,0,0.2,0,0.3s0,0.2,0,0.3
		c0,0.2,0.1,0.4,0.2,0.6c0.1,0.2,0.2,0.2,0.5,0.2c1-0.1,2-0.2,2.9-0.3c1-0.1,1.9-0.2,2.9-0.3l0.1-0.2l0-0.2
		c-0.1-0.8-0.2-1.5-0.3-2.3c-0.1-0.7-0.2-1.5-0.3-2.2l-0.1-0.6c0,0,0-0.1,0.1-0.2c0-0.1,0.1-0.1,0.1-0.1l2.1-0.2l0.2,0.1
		c0,0,0.1,0,0.1,0.1s0.1,0.1,0.1,0.1l0.5,5.5c0.1,0.1,0.1,0.3,0.1,0.4c0,0.2,0,0.3,0,0.4l0,0.4l-0.1,0.1l0.3,2.6
		c0,0.1,0,0.2,0.1,0.4c0,0.2,0.1,0.3,0.1,0.3l0.4,4.5c0,0,0,0.1,0,0.2c0,0.1-0.1,0.2-0.1,0.2l-2.2,0.2c0,0-0.1,0-0.1,0
		c-0.1,0-0.1-0.1-0.2-0.1l-0.1-0.9c-0.1-0.8-0.2-1.7-0.2-2.5c-0.1-0.8-0.1-1.7-0.2-2.5l-0.1-0.7c0-0.1,0-0.2-0.1-0.2l0,0
		c0,0,0,0,0,0c0,0,0,0,0,0l0,0c0,0,0,0-0.1,0l-4.2,0.4c-0.1,0-0.3,0-0.6,0.1s-0.4,0-0.6,0.1s-0.5,0.1-0.8,0.1l-0.1,0.1
		c0,0.2,0,0.4,0.1,0.5c0,0.2,0,0.3,0.1,0.5l0.1,1c0,0,0,0.1,0,0.2s0,0.2,0.1,0.3c0,0.1,0,0.2,0.1,0.3c0,0.1,0,0.2,0,0.2l0.1,1.5
		l0,0.1l0.2,2.1c0,0.1-0.1,0.1-0.1,0.2c-0.1,0.1-0.2,0.1-0.3,0.2l-1.5,0.1c0,0-0.1,0-0.3,0c-0.2,0-0.3,0-0.4,0
		c-0.1,0-0.2-0.1-0.2-0.2s0-0.3,0-0.3L230.9,46.7z"/>
	<path class="st9" d="M245.7,45.8c0,0,0-0.2,0-0.3c0-0.2,0-0.3,0-0.3l0-0.2c0,0,0-0.1,0-0.2s0-0.3,0-0.4s0-0.3,0-0.4s0-0.2,0-0.3
		l-0.3-3.4c0,0,0-0.1,0-0.2s0-0.3,0-0.4s0-0.3,0-0.4c0-0.1,0-0.2,0-0.2l0-0.3c-0.1-0.9-0.1-1.8-0.2-2.7c-0.1-0.9-0.1-1.8-0.2-2.7
		l-0.1-1.4c0-0.1,0-0.2-0.1-0.3s0-0.2,0-0.3l0-0.1c0,0,0-0.1,0-0.1c0,0,0-0.1,0-0.1l0-0.2l0.2-0.2l0.9-0.1c0.6,0,1.2-0.1,1.7-0.1
		c0.6,0,1.1-0.1,1.7-0.1c0.4,0,0.7-0.1,1.1-0.1c0.3,0,0.7-0.1,1.1-0.1l1.1-0.1c0.2,0,0.4,0,0.6,0c0.2,0,0.4,0.1,0.4,0.2l0.1,1.4
		c0,0.2,0,0.3-0.1,0.5c-0.1,0.1-0.2,0.3-0.3,0.3l-0.6,0.1c0,0-0.1,0-0.2,0s-0.2,0-0.3,0s-0.2,0-0.3,0c-0.1,0-0.2,0-0.2,0l-3.7,0.3
		c-0.1,0-0.2,0.1-0.3,0.1c-0.1,0-0.1,0.1-0.1,0.2l0.2,2.6c0,0,0,0,0.1,0.1s0,0.1,0,0.1c0,0.1,0.1,0.1,0.2,0.1c0.1,0,0.2,0,0.3,0.1
		c0.7-0.1,1.3-0.2,1.9-0.2c0.6-0.1,1.3-0.2,2-0.2l1.4-0.1c0.1,0,0.2,0,0.3,0c0.1,0,0.2,0.1,0.2,0.1l0.1,1.8c0,0.1,0,0.2,0,0.3
		s-0.1,0.2-0.2,0.2l-1.5,0.1c0,0-0.1,0-0.3,0c-0.1,0-0.3,0-0.4,0c-0.2,0-0.3,0-0.4,0c-0.1,0-0.2,0-0.2,0l-1.9,0.2c0,0-0.1,0-0.3,0
		c-0.1,0-0.2,0-0.3,0l-0.2,0c-0.1,0-0.2,0-0.3,0.1c-0.1,0.1-0.2,0.1-0.2,0.3l0,0.1c0,0,0,0.1,0,0.3s0,0.3,0,0.4c0,0.2,0,0.3,0,0.4
		c0,0.1,0,0.2,0,0.3l0.2,2.2c0,0,0,0.2,0.1,0.3c0,0.2,0.1,0.3,0.1,0.3l0,0.1c0.1,0.1,0.3,0.1,0.5,0.1c0.3,0,0.5,0,0.7,0
		c0.7-0.1,1.4-0.1,2-0.2s1.4-0.2,2.1-0.2l0.6,0c0.2,0,0.3,0.1,0.3,0.2c0.1,0.1,0.1,0.2,0.1,0.4l0.1,0.9c0,0.2,0,0.4,0,0.6
		s-0.1,0.3-0.3,0.3c-0.1,0-0.3,0-0.6,0c-0.3,0-0.6,0.1-1,0.1s-0.8,0.1-1.3,0.1s-0.9,0.1-1.2,0.1c-0.4,0-0.7,0.1-1,0.1
		c-0.3,0-0.5,0-0.6,0L246,46C245.9,46,245.8,45.9,245.7,45.8z"/>
	<path class="st9" d="M274.9,34.6C274.9,34.6,274.9,34.7,274.9,34.6c0,0.1,0,0.1,0,0.1l0,0.1c-0.1,0.3-0.2,0.6-0.3,0.9
		s-0.2,0.6-0.3,0.9l0,0.1c0,0,0,0-0.1,0.1s-0.1,0.1-0.1,0.2c0,0.1,0,0.1-0.1,0.2c0,0.1,0,0.1,0,0.1l0,0.1c0,0,0,0.1,0,0.1l-0.4,1.1
		c-0.1,0.1-0.1,0.3-0.2,0.4c0,0.1-0.1,0.3-0.1,0.4l-0.3,1.1c-0.1,0.4-0.2,0.7-0.4,1.1c-0.1,0.3-0.3,0.7-0.4,1l0,0.1
		c0,0.2,0,0.4-0.2,0.5c-0.1,0.2-0.2,0.3-0.2,0.5l-0.2,0.6c0,0.1-0.1,0.3-0.2,0.5s-0.2,0.3-0.4,0.3c-0.1,0-0.2-0.1-0.3-0.2l-0.2-0.3
		c-0.2-0.5-0.4-0.9-0.5-1.4c-0.2-0.5-0.4-0.9-0.6-1.3c0,0-0.1-0.1-0.1-0.2c0-0.1,0-0.1-0.1-0.2l-0.3-0.7c-0.1-0.1-0.1-0.1-0.1-0.2
		c0-0.1,0-0.2-0.1-0.2c-0.1-0.3-0.3-0.6-0.4-0.8c-0.1-0.3-0.3-0.5-0.4-0.8c-0.1-0.3-0.3-0.6-0.4-0.9c-0.1-0.3-0.3-0.7-0.4-1.1
		c-0.3-0.8-0.7-1.7-1.1-2.5c-0.4-0.8-0.8-1.6-1.1-2.4l-0.5-1c-0.1-0.2-0.2-0.4-0.3-0.6c-0.1-0.2-0.2-0.4-0.2-0.6l0-0.2
		c0.1-0.1,0.1-0.1,0.2-0.2c0.1,0,0.2,0,0.2-0.1c0.4,0,0.8,0,1.2,0c0.4,0,0.7,0,0.9,0c0.1,0,0.2,0.1,0.3,0.2c0.1,0.1,0.1,0.2,0.2,0.4
		c0.1,0.2,0.1,0.3,0.2,0.5c0,0.2,0.1,0.3,0.1,0.4c0.1,0.1,0.1,0.3,0.2,0.4c0.1,0.1,0.1,0.3,0.2,0.4L268,32c0.1,0.4,0.3,0.8,0.5,1.2
		c0.2,0.5,0.4,0.9,0.6,1.4l0.2,0.5l0.4,0.8c0.1,0.3,0.2,0.5,0.3,0.8s0.2,0.6,0.4,0.9c0,0,0.1,0.1,0.1,0.2c0,0.1,0.1,0.2,0.1,0.3
		c0,0.1,0.1,0.2,0.1,0.3l0,0.1l0.1,0c0,0,0.1,0,0.1,0c0.1,0,0.1-0.1,0.2-0.2c0.1-0.2,0.1-0.2,0.1-0.3l0.6-1.5c0-0.1,0-0.2,0.1-0.4
		c0.1-0.1,0.1-0.3,0.2-0.4s0.1-0.3,0.2-0.4c0-0.1,0.1-0.2,0.1-0.3l0.2-0.6c0,0,0-0.1,0-0.1c0-0.1,0-0.1,0-0.1c0-0.2,0.1-0.3,0.2-0.5
		s0.2-0.4,0.2-0.6l0-0.2c0.1-0.3,0.3-0.6,0.4-0.9c0.1-0.3,0.2-0.6,0.4-1c0,0,0-0.1,0-0.1c0-0.1,0-0.2,0.1-0.3s0.1-0.2,0.1-0.3
		c0-0.1,0-0.1,0.1-0.1c0.1-0.2,0.1-0.4,0.2-0.7c0.1-0.2,0.2-0.4,0.2-0.6c0-0.1,0-0.2,0-0.3c0-0.1,0.1-0.2,0.3-0.3
		c0.2,0,0.3,0,0.3,0.1c0.1,0.1,0.1,0.1,0.2,0.3c0.2,0.5,0.4,1,0.6,1.5c0.2,0.5,0.4,1,0.6,1.5L277,33c0.1,0.2,0.1,0.4,0.2,0.5
		s0.1,0.3,0.2,0.4c0.1,0.1,0.1,0.2,0.2,0.3l0,0.1c0.2,0.5,0.5,1,0.6,1.6c0.2,0.5,0.4,1.1,0.7,1.6c0,0.2,0.1,0.3,0.2,0.5
		s0.2,0.3,0.2,0.5l0.1,0l0.1,0l0.1-0.2c0-0.1,0.1-0.2,0.1-0.3c0.1-0.1,0.1-0.2,0.1-0.3l0,0c0.1-0.2,0.1-0.3,0.2-0.5
		c0-0.2,0.1-0.4,0.2-0.6l0.3-0.7c0.2-0.6,0.4-1.2,0.6-1.8c0.2-0.6,0.4-1.2,0.6-1.8c0.1-0.2,0.1-0.4,0.2-0.6c0-0.2,0.1-0.4,0.2-0.6
		c0.1-0.3,0.2-0.5,0.3-0.7s0.2-0.5,0.2-0.7c0.1-0.2,0.1-0.4,0.2-0.5c0-0.1,0.1-0.3,0.2-0.3c0.1-0.1,0.2-0.2,0.4-0.2s0.4-0.1,0.8-0.1
		c0.6,0,1,0,1.2,0c0.2,0,0.3,0.2,0.3,0.4c-0.1,0.5-0.3,1-0.5,1.5s-0.4,1-0.6,1.4c-0.1,0.2-0.2,0.5-0.3,0.8c-0.1,0.3-0.2,0.6-0.3,0.9
		l-0.2,0.6c-0.2,0.4-0.3,0.7-0.4,1.1c-0.1,0.4-0.2,0.7-0.4,1.1l0,0c-0.2,0.5-0.4,1-0.6,1.6c-0.2,0.5-0.3,1-0.6,1.5l-0.3,0.7
		l-0.2,0.6c-0.1,0.4-0.3,0.8-0.4,1.1s-0.3,0.7-0.5,1.1c0,0,0,0.1,0,0.2c0,0.1,0,0.1,0,0.2L280,44l-0.3,0.7c-0.1,0.1-0.2,0.1-0.3,0.1
		c-0.2,0-0.3-0.1-0.3-0.3c0-0.2-0.1-0.4-0.2-0.7c-0.1-0.1-0.1-0.3-0.2-0.4c-0.1-0.2-0.1-0.3-0.1-0.5l0,0c-0.1-0.1-0.1-0.2-0.1-0.4
		c0-0.2-0.1-0.3-0.2-0.5c-0.2-0.6-0.4-1.2-0.7-1.8c-0.2-0.6-0.5-1.1-0.7-1.7c0,0-0.1-0.1-0.1-0.3c-0.1-0.2-0.2-0.4-0.3-0.7
		c-0.1-0.3-0.2-0.6-0.4-0.9s-0.3-0.7-0.4-0.9c-0.1-0.3-0.3-0.5-0.4-0.7s-0.2-0.3-0.2-0.3l0,0C275,34.6,275,34.7,274.9,34.6
		C274.9,34.7,274.9,34.6,274.9,34.6z M274.9,34.7C274.9,34.7,274.9,34.7,274.9,34.7L274.9,34.7z"/>
	<path class="st9" d="M287.9,35.6c0-0.3,0-0.5,0.1-0.8s0.1-0.5,0.2-0.8l0.2-0.5l0.1-0.1l0-0.3l0.4-0.9c0.3-0.6,0.6-1.1,1.1-1.6
		c0.4-0.5,0.9-0.9,1.5-1.2c0.5-0.3,1.1-0.6,1.7-0.8c0.6-0.2,1.2-0.4,1.9-0.5l0.1,0c0,0,0.1,0,0.1,0c0.1,0,0.1,0,0.1,0l0.1,0l0.1-0.1
		c0,0,0.1-0.1,0.1-0.1c0,0,0.1,0,0.2,0l0,0.1c0,0,0,0,0.1-0.1c0,0,0,0,0.1,0l0.1,0c0.1,0,0.1,0,0.1,0l0.5,0c0.5,0,1,0.1,1.5,0.2
		c0.6,0.2,1.1,0.4,1.7,0.7s1.1,0.6,1.6,1c0.5,0.4,0.9,0.8,1.3,1.3c0.1,0.1,0.2,0.2,0.3,0.4c0.1,0.2,0.2,0.3,0.2,0.5
		c0.1,0.2,0.2,0.4,0.2,0.6c0.1,0.2,0.1,0.4,0.2,0.6c0.1,0.1,0.1,0.2,0.2,0.3s0.1,0.3,0.1,0.5c0,0,0,0,0,0.1c0,0,0,0,0,0.1
		c0,0,0,0,0,0l0,0c0.1,0.1,0.1,0.2,0.1,0.3c0,0.1,0,0.2,0,0.4c0,0.2,0,0.4,0.1,0.6s0,0.4,0,0.6c0,0.5-0.1,1-0.2,1.5
		c-0.1,0.5-0.2,1-0.4,1.4l-0.3,0.7c-0.2,0.5-0.5,0.9-0.9,1.4c-0.3,0.4-0.7,0.8-1.1,1.1l-0.5,0.3c-0.3,0.1-0.5,0.3-0.8,0.4
		c-0.3,0.2-0.6,0.3-0.9,0.4c-0.3,0.1-0.6,0.2-0.9,0.3c-0.3,0.1-0.6,0.1-0.8,0.1l-0.4,0c-0.2,0-0.3,0-0.5,0.1c-0.2,0-0.3,0.1-0.5,0.1
		c-0.8,0-1.6-0.1-2.3-0.3h-0.1c-0.3,0-0.7-0.1-1-0.3c-0.3-0.2-0.6-0.3-0.9-0.5c-0.6-0.3-1.2-0.8-1.7-1.3c-0.5-0.5-0.9-1.1-1.3-1.7
		c-0.3-0.6-0.6-1.3-0.8-1.9s-0.3-1.4-0.3-2.1L287.9,35.6z M288.5,33.1C288.4,33.1,288.4,33.2,288.5,33.1L288.5,33.1L288.5,33.1
		L288.5,33.1C288.5,33.2,288.5,33.2,288.5,33.1z M291.9,39.8c0.4,0.5,0.9,0.8,1.3,1.1s1,0.5,1.6,0.6c0.1,0,0.2,0,0.3,0
		c0.1,0,0.1,0,0.2,0.1l0.6,0c0.4,0,0.8,0,1.2-0.1s0.8-0.2,1.2-0.4s0.8-0.4,1.1-0.7c0.4-0.3,0.7-0.6,0.9-0.9c0.2-0.3,0.3-0.5,0.5-0.8
		s0.2-0.5,0.3-0.8c0.1-0.2,0.1-0.5,0.2-0.7c0-0.2,0.1-0.5,0.1-0.8l0-0.1c0-0.1,0-0.2,0-0.3c0-0.1,0-0.2,0-0.3l0-0.5
		c0-0.4-0.1-0.7-0.2-1c-0.1-0.3-0.3-0.6-0.4-0.9l0-0.1c-0.4-0.7-0.9-1.3-1.5-1.8c-0.6-0.5-1.4-0.8-2.4-0.9l-0.3,0c0,0,0,0-0.1,0
		c0,0-0.1,0-0.1,0l-0.3,0c-0.8,0-1.6,0.2-2.4,0.5c-0.7,0.3-1.4,0.8-2,1.4l-0.3,0.5c-0.1,0-0.1,0.1-0.2,0.2c-0.1,0.1-0.1,0.2-0.2,0.3
		c-0.1,0.1-0.1,0.3-0.2,0.4c0,0.1-0.1,0.2-0.1,0.3l0,0.1c-0.1,0.3-0.2,0.6-0.2,0.9c0,0.3-0.1,0.6-0.1,0.9c0,0,0,0.1,0,0.3
		s0,0.3,0,0.3c0.1,0.1,0.1,0.3,0.1,0.5c0,0.2,0,0.4,0.1,0.5c0,0.1,0.1,0.1,0.1,0.2c0,0,0.1,0.1,0.1,0.2l0.1,0c0,0.3,0.1,0.6,0.3,0.8
		s0.4,0.5,0.5,0.8C291.9,39.7,291.9,39.7,291.9,39.8z"/>
	<path class="st9" d="M309.4,38.8C309.5,38.8,309.5,38.8,309.4,38.8c0,0.1,0,0.1,0,0.1C309.4,38.9,309.4,38.9,309.4,38.8l-0.1,0.3
		c0,0,0,0.1,0.1,0.1c0,0.1,0,0.1,0,0.1l0,0.2l0,0.1l0,0.5c0,0.1,0,0.2-0.1,0.3c0,0.1,0,0.2,0,0.3v0c0,0.3,0,0.6,0,0.9
		c0,0.3,0,0.6,0,0.8c0,0,0,0.1,0,0.2c0,0.1,0,0.1,0,0.1c0,0,0,0.1,0,0.1c0,0.1,0,0.1,0,0.1c0.1,0,0.1,0.1,0.1,0.3
		c0,0.2,0,0.3-0.1,0.4s-0.2,0.2-0.3,0.2c-0.1,0-0.2,0.1-0.4,0.1c-0.1,0-0.3,0-0.4,0l-0.4,0c0,0-0.1,0-0.2,0c-0.1,0-0.2,0-0.3,0
		c-0.1,0-0.2,0-0.3,0c-0.1,0-0.2,0-0.2,0l0,0c-0.1,0-0.1,0-0.1-0.1l-0.1,0c0,0,0-0.1,0-0.1c0-0.1,0-0.1,0-0.1c0-0.2-0.1-0.4-0.1-0.5
		c0-0.2,0-0.3,0-0.5c0-0.4,0-0.8,0-1.3c0-0.4,0-0.8,0-1.3l0-0.6c0,0,0-0.1,0-0.2l0-0.1c0,0,0-0.1,0-0.2s0-0.1,0-0.1l0-0.3
		c0,0,0,0,0-0.1c0,0,0-0.1,0-0.1c0,0,0-0.1,0-0.3c0-0.1,0-0.2,0-0.3c0,0,0-0.1,0-0.3c0-0.1,0-0.3,0-0.5c0-0.2,0-0.3,0-0.5
		c0-0.1,0-0.2,0-0.3l0-1.1c0-0.1,0-0.3,0-0.4c0-0.1,0-0.2,0-0.3c0,0,0-0.1,0-0.2l0-2.4c0,0,0,0,0,0c0,0,0,0,0-0.1l0,0c0,0,0,0,0,0
		l0-2.7c0-0.1,0-0.1,0-0.2c0-0.1,0.1-0.1,0.1-0.2c0,0,0.1,0,0.3,0c0.1,0,0.3,0,0.5,0c0.2,0,0.4,0,0.5,0c0.2,0,0.3,0,0.5,0
		c0.4,0,0.6,0,0.9,0c0.2,0,0.4,0,0.6,0c0.2,0,0.3,0,0.5,0c0.1,0,0.3,0,0.5,0l0.8,0c0.5,0,0.9,0.1,1.3,0.3c0.4,0.2,0.8,0.4,1.2,0.6
		c0,0,0.1,0,0.1,0.1c0.1,0,0.1,0.1,0.2,0.1c0.1,0.1,0.2,0.3,0.3,0.4c0.1,0.1,0.2,0.3,0.3,0.4l0.2,0.3c0.1,0.1,0.2,0.3,0.2,0.4
		s0.1,0.4,0.2,0.6c0,0.2,0.1,0.5,0.1,0.7s0,0.5,0,0.7c0,0.4-0.1,0.9-0.2,1.3c-0.1,0.4-0.3,0.8-0.5,1.1c-0.2,0.3-0.5,0.7-0.9,0.9
		c-0.4,0.3-0.8,0.5-1.4,0.6c-0.1,0-0.2,0-0.2,0s-0.2,0.1-0.2,0.2l0.1,0.1l0,0c0,0,0.1,0,0.1,0.1l0.3,0.3c0,0.1,0.1,0.1,0.2,0.2
		s0.1,0.1,0.2,0.2l0,0.2l0,0.2l0.1,0c0,0,0.1,0.1,0.1,0.2c0,0.1,0.1,0.1,0.1,0.2l0.2,0.2c0.1,0.1,0.2,0.3,0.3,0.5
		c0.1,0.2,0.2,0.3,0.3,0.4l0.7,1l0,0.1c0.1,0.1,0.1,0.1,0.1,0.1l0.1,0l0,0c0,0,0,0,0,0c0,0,0,0,0,0l0.3,0.4c0,0,0.1,0.1,0.2,0.3
		c0.1,0.1,0.2,0.3,0.3,0.5c0.1,0.2,0.2,0.4,0.3,0.6c0.1,0.2,0.1,0.4,0.1,0.5c0,0,0,0.1,0,0.1c0,0,0,0.1,0,0.1l0,0
		c0,0.1-0.1,0.1-0.2,0.1c-0.1,0-0.2,0-0.4,0c-0.1,0-0.1,0-0.1-0.1c-0.2,0-0.3,0-0.5,0c-0.1,0-0.3,0-0.5,0c-0.4,0-0.7,0-0.9-0.1
		c-0.2-0.1-0.4-0.2-0.5-0.3c-0.1-0.1-0.2-0.3-0.3-0.5c-0.1-0.2-0.2-0.4-0.3-0.6l-0.4-0.5c-0.3-0.5-0.7-1-1-1.5s-0.6-1-0.9-1.4
		l-0.2-0.4c-0.1-0.1-0.2-0.2-0.2-0.4c0-0.2-0.1-0.3-0.3-0.4L310,38c-0.1,0-0.1,0-0.2-0.1s-0.1-0.1-0.2-0.1c-0.1,0-0.1,0-0.2,0
		s-0.1,0.1-0.1,0.1L309.4,38.8C309.4,38.8,309.4,38.8,309.4,38.8z M309.5,32C309.5,32,309.5,32.1,309.5,32L309.5,32L309.5,32
		C309.4,32.1,309.4,32.1,309.5,32l0,0.1c0,0.2,0,0.3,0,0.5c0,0.2,0,0.3,0,0.4c0,0,0,0.1,0,0.1l0,0c0,0,0,0,0,0c0,0,0,0,0,0.1
		c0,0,0,0,0,0.1c0,0.1,0,0.1,0,0.2l0,1.6c0,0.2,0,0.3,0.1,0.4v0c0,0,0-0.1,0.1-0.1v0c0,0,0,0,0,0s0,0,0,0c0,0,0,0,0,0s0,0,0,0v0
		c0.1,0.1,0.2,0.1,0.4,0.1c0.4,0,0.7,0,1,0c0.3,0,0.6,0,0.8-0.1c0.3-0.1,0.5-0.2,0.7-0.3c0.2-0.1,0.5-0.3,0.7-0.6
		c0-0.1,0-0.1,0.1-0.2s0.1-0.1,0.1-0.2l0-0.2c0,0,0-0.1,0.1-0.2c0-0.1,0.1-0.1,0.1-0.2l0-0.2l-0.1,0l0.1-0.5c0,0-0.1-0.1-0.1-0.2
		c0-0.1,0-0.1,0-0.1v0c0-0.2-0.1-0.4-0.2-0.6s-0.3-0.4-0.5-0.5c-0.2-0.1-0.4-0.3-0.6-0.4c-0.2-0.1-0.4-0.1-0.5-0.1c0,0-0.1,0-0.2,0
		c-0.1,0-0.2,0-0.3,0c-0.1,0-0.2,0-0.2,0c0,0-0.1,0-0.2,0l-0.6,0c-0.2,0-0.4,0-0.5,0c-0.1,0-0.2,0.1-0.2,0.2l0.1,0l0,0.1l0,0.1
		c0,0.1,0,0.2-0.1,0.3C309.5,31.9,309.4,32,309.5,32C309.4,32.1,309.4,32,309.5,32z M309.5,31.4C309.4,31.4,309.4,31.4,309.5,31.4
		c0,0.1,0,0.1,0,0.1S309.5,31.5,309.5,31.4C309.5,31.4,309.5,31.4,309.5,31.4z M309.5,35.3C309.6,35.3,309.6,35.3,309.5,35.3
		L309.5,35.3C309.5,35.4,309.5,35.4,309.5,35.3C309.5,35.3,309.5,35.3,309.5,35.3z M309.6,31.2C309.6,31.2,309.6,31.2,309.6,31.2
		c0,0.1,0,0.1,0,0.1C309.5,31.3,309.5,31.3,309.6,31.2C309.5,31.2,309.5,31.2,309.6,31.2z M316.8,43.9L316.8,43.9
		C316.7,43.9,316.7,44,316.8,43.9C316.7,44,316.7,44,316.8,43.9L316.8,43.9z"/>
	<path class="st9" d="M319.6,44.2c0,0-0.1-0.1-0.2-0.1c-0.1-0.1-0.1-0.1-0.1-0.2l0.2-8.3c0,0,0-0.1,0-0.1c0-0.1,0-0.1,0-0.2
		c0-0.1,0-0.1,0-0.2s0-0.1,0-0.1l0-0.5c0-0.2,0-0.3,0-0.4c0-0.1,0-0.3,0.1-0.4c0-0.4,0-0.9,0-1.3c0-0.5,0-0.9,0-1.4
		c0-0.4,0-0.8,0-1.1s0-0.5,0-0.6c0-0.1,0-0.2,0.1-0.3c0.1-0.1,0.2-0.1,0.3-0.1l1.3,0c0.1,0,0.1,0,0.2,0c0.1,0,0.2,0,0.3,0
		c0.1,0,0.2,0,0.3,0l0.2,0.2l-0.4,12.4c0,0,0,0.1,0.2,0.1c0.1,0,0.2,0.1,0.2,0.1l4.1,0.1c0.1,0,0.1,0,0.1,0.1s0.1,0.2,0.1,0.3
		c0,0.1,0,0.2,0,0.3s0,0.2,0,0.2c0,0.1,0,0.2,0,0.4c0,0.2,0,0.3-0.1,0.5c0,0.2-0.1,0.3-0.1,0.4c0,0.1-0.1,0.2-0.2,0.2
		c0,0-0.1,0-0.2,0c-0.1,0-0.2,0-0.2,0l-0.2,0c-1,0-2-0.1-2.9-0.1C321.6,44.3,320.6,44.2,319.6,44.2z"/>
	<path class="st9" d="M328.3,42.4c0-0.1,0-0.2,0-0.3c0-0.1,0-0.2,0.1-0.3l0.6-11.9c0,0,0-0.1,0-0.1c0-0.1,0-0.1,0-0.2
		c0-0.2,0.1-0.3,0.4-0.4l2.2,0.1c0.1,0,0.3,0,0.5,0s0.5,0,0.7,0.1c0.2,0,0.5,0,0.7,0.1s0.3,0,0.4,0l0.9,0.2c0.2,0,0.4,0.1,0.6,0.1
		c0.2,0,0.4,0.1,0.6,0.1c0.9,0.3,1.8,0.8,2.5,1.3c0.8,0.6,1.4,1.3,1.8,2.2c0.1,0.1,0.1,0.3,0.1,0.4s0.1,0.3,0.2,0.4
		c0.2,0.5,0.3,0.9,0.4,1.4c0.1,0.5,0.1,1,0.1,1.4l0,0.2c0,0.3,0,0.6-0.1,0.9c0,0.3-0.1,0.6-0.1,0.8l-0.1,0.1l0,0.2
		c0,0.1,0,0.1,0,0.1s0,0,0,0.1c-0.2,0.9-0.6,1.6-1.1,2.3c-0.5,0.7-1.1,1.2-1.8,1.7c-0.7,0.4-1.5,0.8-2.3,1c-0.8,0.2-1.6,0.3-2.4,0.3
		l-0.1,0c-0.1,0-0.3,0-0.5,0c-0.3,0-0.6,0-0.9,0c-0.3,0-0.6,0-0.9,0c-0.3,0-0.4,0-0.5,0l-1.7-0.1l-0.1-0.2l0-0.1c0,0,0-0.1,0-0.1
		c0-0.1,0-0.2,0-0.3c0-0.1,0-0.2,0-0.2c0-0.1,0-0.1,0-0.2L328.3,42.4z M331,41.9c0.2,0.2,0.3,0.3,0.5,0.3c0.4,0,0.9,0,1.3,0
		c0.4,0,0.9,0,1.3-0.1c0,0,0.1,0,0.2,0c0.1,0,0.2-0.1,0.3-0.1s0.2-0.1,0.2-0.1s0.1,0,0.1,0l0.6-0.3c0.1-0.1,0.2-0.1,0.4-0.2
		c0.1,0,0.2-0.1,0.3-0.2l0.8-0.8l0.3-0.5c0,0,0-0.1,0.1-0.1c0,0,0.1-0.1,0.1-0.1c0.3-0.4,0.5-0.8,0.6-1.1c0.1-0.4,0.2-0.8,0.2-1.3
		c0-0.6,0-1.1-0.1-1.6c-0.1-0.4-0.3-0.9-0.5-1.5l-0.1-0.2l0,0c-0.1-0.2-0.2-0.3-0.5-0.6c-0.2-0.2-0.5-0.4-0.8-0.6
		c-0.3-0.2-0.6-0.4-1-0.5c-0.3-0.2-0.7-0.3-1-0.3c0,0-0.1,0-0.1,0c-0.1,0-0.1,0-0.2,0c0,0-0.1,0-0.4-0.1c-0.2-0.1-0.5-0.1-0.7-0.1
		l-1.2-0.1c-0.1,0.1-0.2,0.2-0.2,0.4l-0.1,2.7c0,0.9-0.1,1.8-0.1,2.6c0,0.9-0.1,1.7-0.1,2.6c0,0.3,0,0.6-0.1,0.9
		C331.1,41.3,331,41.6,331,41.9z"/>
	<path class="st9" d="M351.2,37.6c0-0.3,0.1-0.5,0.2-0.8s0.2-0.5,0.2-0.8l0.2-0.5l0.1-0.1l0-0.3l0.5-0.8c0.3-0.6,0.7-1.1,1.2-1.5
		c0.5-0.4,1-0.8,1.5-1.1s1.2-0.5,1.8-0.7s1.3-0.3,1.9-0.3l0.1,0c0,0,0.1,0,0.1,0c0.1,0,0.1,0,0.1,0l0.1,0l0.1-0.1
		c0,0,0.1-0.1,0.1-0.1s0.1,0,0.2,0l0,0.1c0,0,0,0,0.1,0s0,0,0.1,0l0.1,0c0.1,0,0.1,0.1,0.1,0.1l0.5,0c0.5,0,1,0.2,1.5,0.4
		s1.1,0.5,1.6,0.8c0.5,0.3,1,0.7,1.5,1.2c0.5,0.4,0.9,0.9,1.2,1.4c0.1,0.1,0.2,0.2,0.2,0.4c0.1,0.2,0.1,0.3,0.2,0.5s0.1,0.4,0.2,0.6
		c0,0.2,0.1,0.4,0.2,0.6c0.1,0.1,0.1,0.2,0.1,0.3c0,0.1,0,0.3,0.1,0.5c0,0,0,0,0,0.1c0,0,0,0,0,0.1c0,0,0,0,0,0l0,0
		c0.1,0.1,0.1,0.2,0.1,0.4c0,0.1,0,0.2,0,0.4c0,0.2,0,0.4,0,0.6c0,0.2,0,0.4,0,0.6c0,0.5-0.1,1-0.3,1.5s-0.3,0.9-0.5,1.4l-0.3,0.7
		c-0.3,0.5-0.6,0.9-1,1.3c-0.4,0.4-0.8,0.8-1.2,1.1l-0.5,0.3c-0.3,0.1-0.5,0.2-0.8,0.4c-0.3,0.1-0.6,0.2-0.9,0.4
		c-0.3,0.1-0.6,0.2-0.9,0.3c-0.3,0.1-0.6,0.1-0.8,0.1l-0.4,0c-0.2,0-0.3,0-0.5,0c-0.2,0-0.3,0-0.5,0c-0.8-0.1-1.5-0.2-2.3-0.4
		l-0.1,0c-0.3-0.1-0.7-0.2-1-0.4s-0.6-0.4-0.9-0.5c-0.6-0.4-1.1-0.9-1.6-1.4s-0.8-1.1-1.1-1.8c-0.3-0.6-0.5-1.3-0.6-2
		s-0.2-1.4-0.1-2.1L351.2,37.6z M352,35.1C351.9,35.1,351.9,35.1,352,35.1L352,35.1L352,35.1L352,35.1C352,35.2,352,35.1,352,35.1z
		 M354.8,42c0.4,0.5,0.8,0.9,1.2,1.2c0.4,0.3,0.9,0.6,1.5,0.8c0.1,0,0.2,0,0.3,0c0.1,0,0.1,0,0.2,0.1l0.6,0.1c0.4,0,0.8,0,1.2,0
		s0.9-0.1,1.3-0.3s0.8-0.3,1.2-0.6c0.4-0.2,0.7-0.5,1-0.9c0.2-0.3,0.4-0.5,0.5-0.8s0.3-0.5,0.4-0.7c0.1-0.2,0.2-0.5,0.2-0.7
		c0.1-0.2,0.1-0.5,0.1-0.8l0.1-0.1c0-0.1,0-0.2,0-0.3c0-0.1,0-0.2,0-0.3l0-0.5c0-0.4,0-0.7-0.1-1.1c-0.1-0.3-0.2-0.6-0.3-1l0-0.1
		c-0.4-0.7-0.8-1.4-1.4-1.9c-0.6-0.5-1.3-0.9-2.3-1.1l-0.3,0c0,0,0,0-0.1,0c0,0-0.1,0-0.1,0l-0.3,0c-0.8-0.1-1.6,0-2.4,0.3
		c-0.8,0.3-1.5,0.7-2.1,1.3l-0.3,0.5c-0.1,0-0.1,0.1-0.2,0.2c-0.1,0.1-0.1,0.2-0.2,0.3c-0.1,0.1-0.1,0.2-0.2,0.4
		c-0.1,0.1-0.1,0.2-0.2,0.3l0,0.1c-0.1,0.3-0.2,0.6-0.3,0.9c-0.1,0.3-0.1,0.6-0.1,0.9c0,0,0,0.1,0,0.3s0,0.3,0,0.3
		c0,0.1,0.1,0.3,0,0.5c0,0.2,0,0.4,0.1,0.5c0,0.1,0,0.1,0.1,0.2c0,0,0,0.1,0,0.2l0.1,0c0,0.3,0,0.6,0.2,0.9c0.2,0.3,0.3,0.5,0.5,0.8
		C354.8,41.9,354.8,42,354.8,42z"/>
	<path class="st9" d="M369.3,47.2c0-0.2,0-0.3,0-0.4l0-0.3c0,0,0-0.1,0-0.2s0-0.3,0.1-0.4s0-0.3,0.1-0.4s0-0.2,0-0.2l0.2-1.5
		c0,0,0-0.1,0-0.1s0-0.2,0-0.2c0-0.1,0-0.2,0.1-0.2c0-0.1,0-0.1,0-0.1l0-0.1c0-0.1,0-0.1,0-0.1c0,0,0-0.1,0-0.2l1.1-9.6l0.1-0.5
		l0.2-0.2l7,0.8c0.1,0,0.3,0,0.5,0.1c0.2,0.1,0.3,0.1,0.3,0.2l-0.2,1.8c0,0.1,0,0.1-0.1,0.2s-0.1,0.1-0.2,0.1l-0.7-0.1
		c-0.6-0.1-1.1-0.1-1.7-0.2c-0.6-0.1-1.2-0.1-1.7-0.2l-0.6-0.1c-0.1,0-0.1,0-0.2,0.1c-0.1,0-0.1,0.1-0.2,0.1c0,0,0,0.1,0,0.2
		c0,0.1,0,0.2,0,0.4c0,0.3-0.1,0.5-0.1,0.6c0,0.1,0,0.3-0.1,0.5l0,0.4l0,0l0,0.1c0,0,0,0.1,0,0.1c0,0,0,0,0,0c0,0.1,0,0.2,0,0.3
		c0,0.1,0,0.2,0,0.3c0,0.2,0.1,0.3,0.2,0.3l4.8,0.5c0.1,0,0.2,0,0.2,0.1c0.1,0,0.1,0.1,0.2,0.2c0,0.3-0.1,0.6-0.1,0.9s0,0.6-0.1,1
		c0,0.1,0,0.1-0.1,0.2c0,0.1-0.1,0.1-0.2,0.1l-0.5-0.1c-0.7-0.1-1.4-0.2-2-0.3c-0.6-0.1-1.3-0.2-2.1-0.3l-0.2,0c-0.1,0-0.2,0-0.3,0
		c-0.1,0-0.2,0.1-0.2,0.2l0,0.1c0,0,0,0.2,0,0.4c0,0.2,0,0.5,0,0.7s0,0.5-0.1,0.7c0,0.2,0,0.4,0,0.4c0,0.1,0,0.3-0.1,0.7
		s-0.1,0.7-0.1,1c0,0.2,0,0.3,0,0.4c0,0.1,0,0.2,0,0.3c0,0.1,0,0.2,0,0.3s0,0.2,0,0.3l-0.1,0.6c0,0,0,0.1-0.1,0.2
		c0,0.1-0.1,0.2-0.1,0.2c0,0.1-0.1,0.2-0.3,0.2c-0.2,0-0.4,0-0.6,0s-0.5,0-0.7,0c-0.2,0-0.5,0-0.6-0.1l-0.4,0l0-0.1
		C369.3,47.4,369.2,47.3,369.3,47.2z"/>
	<path class="st9" d="M403.6,50.8C403.7,50.8,403.7,50.9,403.6,50.8c0,0.1,0,0.1,0,0.1l0,0c0,0.3,0,0.5,0,0.6c0,0.3-0.2,0.4-0.4,0.4
		l-2.2-0.4c-0.1,0-0.2-0.2-0.2-0.5c0-0.3-0.1-0.7-0.1-1.2s0-0.9,0-1.4c0-0.5,0-0.9-0.1-1.1l0,0c0,0,0-0.1,0-0.3c0-0.2,0-0.3,0-0.3
		l-0.1-0.5c0,0,0-0.1,0-0.3s0-0.4,0-0.7c0-0.3,0-0.6,0-0.9s0-0.6,0-0.9s0-0.5-0.1-0.7c0-0.2-0.1-0.3-0.1-0.3c0,0-0.1,0.1-0.2,0.2
		c-0.1,0.2-0.2,0.4-0.4,0.6c-0.1,0.2-0.3,0.5-0.4,0.8c-0.1,0.3-0.3,0.5-0.4,0.6c-0.1,0.3-0.3,0.5-0.5,0.8c-0.2,0.3-0.4,0.5-0.5,0.8
		c-0.2,0.3-0.3,0.5-0.5,0.8c-0.1,0.3-0.3,0.6-0.4,0.8l-0.4,0.6c0,0,0,0.1-0.1,0.1c0,0.1-0.1,0.1-0.1,0.2l0,0c0,0.1,0,0.1,0,0.1
		l-0.4,0.7l-0.1,0.1c0,0.1-0.1,0.1-0.2,0.2s-0.1,0.2-0.2,0.3c-0.1,0.1-0.1,0.2-0.2,0.3c0,0.1-0.1,0.1-0.1,0.1l0,0.2
		c0,0.1-0.1,0.1-0.2,0.1s-0.2,0-0.3,0c-0.1,0-0.2-0.1-0.4-0.2c-0.1-0.1-0.1-0.3-0.1-0.4c-0.1-0.2-0.1-0.4-0.1-0.5
		c0-0.1-0.1-0.3-0.1-0.4c0-0.1,0-0.3,0-0.4l-0.2-0.6c0-0.1,0-0.1,0-0.2s0-0.1,0-0.2c-0.1-0.1-0.1-0.2-0.1-0.5c0-0.2,0-0.4-0.1-0.6
		l-0.5-1.7L393,44c0-0.2-0.1-0.3-0.1-0.6c0-0.2-0.1-0.4-0.1-0.6c0-0.2-0.1-0.4-0.2-0.6c-0.1-0.2-0.2-0.4-0.3-0.5
		c-0.1,0.1-0.2,0.2-0.3,0.4c-0.1,0.2-0.1,0.3-0.2,0.5c-0.1,0.2-0.1,0.4-0.2,0.6c0,0.2-0.1,0.3-0.1,0.4l-0.3,0.8c0,0,0,0,0,0.1
		c0,0.1,0,0.1,0,0.1l0,0.1l-0.2,0.4l0,0.2c-0.1,0.2-0.2,0.4-0.3,0.6c-0.1,0.2-0.2,0.4-0.3,0.7c-0.1,0.3-0.2,0.5-0.3,0.8
		c-0.1,0.3-0.2,0.5-0.3,0.8l-0.1,0.1c0,0,0,0,0,0.1l0,0l-0.2,0.5c0,0,0,0.1,0,0.2c0,0.1-0.1,0.2-0.1,0.3c0,0.1-0.1,0.2-0.1,0.3
		c-0.1,0.1-0.1,0.1-0.2,0.2c-0.1,0-0.1,0-0.3,0c-0.1,0-0.3,0-0.4,0c-0.1,0-0.3,0-0.4,0s-0.2,0-0.2,0l-0.5-0.1c0,0-0.1,0-0.1,0
		c-0.1,0-0.1,0-0.2,0l-0.1,0c-0.1,0-0.2-0.1-0.2-0.2c0-0.1,0-0.2,0-0.3c0-0.1,0.1-0.3,0.1-0.4c0.1-0.1,0.1-0.3,0.2-0.4
		c0.4-0.9,0.7-1.7,1.1-2.6c0.4-0.9,0.7-1.7,1-2.6l0.1-0.1c0.1-0.1,0.1-0.2,0.2-0.3s0.1-0.2,0.1-0.3c0-0.1,0.1-0.2,0.1-0.4
		c0.1-0.1,0.1-0.3,0.2-0.5l0,0c0.2-0.3,0.3-0.5,0.3-0.7c0.1-0.2,0.2-0.4,0.3-0.6c0,0,0.1-0.1,0.1-0.2c0.1-0.2,0.1-0.3,0.2-0.5
		s0.2-0.4,0.2-0.7c0-0.1,0.1-0.2,0.1-0.4s0.1-0.2,0.2-0.3c0.2-0.5,0.4-1,0.6-1.5c0.2-0.5,0.4-1,0.6-1.5l0.2-0.6c0,0,0-0.1,0.1-0.2
		c0.1-0.1,0.1-0.1,0.2-0.1l0,0c0.1,0,0.2,0.1,0.3,0.2c0.1,0.1,0.1,0.3,0.2,0.5s0.1,0.4,0.1,0.6c0,0.2,0.1,0.4,0.1,0.5l0.5,2l0.1,0.7
		c0,0.1,0.1,0.3,0.1,0.5s0.1,0.3,0.1,0.5c0,0.2,0.1,0.3,0.1,0.4c0,0.1,0,0.2,0,0.3l0.1,0.5c0.1,0.1,0.1,0.3,0.1,0.5
		c0,0.2,0.1,0.5,0.1,0.7c0,0.1,0.1,0.2,0.2,0.4c0.1,0.2,0.1,0.3,0.1,0.5l0,0l0.3,0.8c0,0,0,0.1,0,0.1c0,0.1,0,0.1,0,0.2c0,0,0,0,0,0
		s0,0,0,0l0.1,0c0,0,0,0.1,0,0.3s0,0.3,0.1,0.4l0.1,0.5c0,0,0.1,0,0.1,0c0.1,0,0.1,0,0.1,0l0-0.1c0.1,0,0.1-0.1,0.2-0.1
		c0-0.1,0.1-0.1,0.1-0.2l0.2-0.3c0-0.1,0.1-0.2,0.1-0.4s0.2-0.3,0.3-0.4l0-0.1c0,0,0.1-0.1,0.1-0.2c0.1-0.1,0.1-0.2,0.1-0.2l0-0.1
		c0-0.1,0.1-0.2,0.2-0.2c0.1,0,0.1-0.1,0.2-0.2l0.7-1.2c0-0.1,0.1-0.1,0.1-0.2c0-0.1,0.1-0.2,0.1-0.3l0.3-0.4c0,0,0.1-0.1,0.2-0.4
		c0.1-0.2,0.2-0.4,0.3-0.6l0.2-0.4c0,0,0-0.1,0.1-0.3c0.1-0.1,0.1-0.2,0.2-0.3l0.1-0.3l0.1-0.1c0,0,0,0,0-0.1s0-0.1,0-0.1
		c0.1,0,0.1,0,0.3-0.1c0,0,0,0,0-0.1c0,0,0,0,0,0l0,0.1c0-0.1,0.1-0.1,0.1-0.2c0-0.1,0.1-0.1,0.1-0.2s0.1-0.1,0.1-0.2l0-0.2l0.1,0
		c0,0,0.1-0.1,0.1-0.1s0.1-0.1,0.1-0.2c0-0.1,0.1-0.1,0.1-0.2l0-0.1l0.4-0.6c0,0,0-0.1,0.1-0.2c0-0.1,0.1-0.2,0.2-0.2
		c0.1-0.1,0.1-0.1,0.2-0.2s0.1-0.1,0.2-0.1c0.1,0,0.2,0.1,0.2,0.2s0.1,0.2,0.1,0.3c0,0.1,0,0.2,0,0.4c0,0.1,0,0.2,0,0.3l0,0.1
		c0,0.2,0,0.3,0.1,0.5c0,0.1,0.1,0.3,0.1,0.4l0.1,1.2c0,0.2,0,0.3,0,0.4c0,0.1,0,0.2,0,0.4l0,0c0,0,0,0.1,0,0.3c0,0.1,0,0.3,0,0.3
		c0,0.3,0,0.5,0.1,0.6c0,0.2,0.1,0.4,0.1,0.7l0,0.1c0,0,0,0.1,0,0.1c0,0.1,0,0.1,0,0.1l0,0.2c0,0,0,0,0,0c0,0,0,0,0,0.1l0,0.1
		c0,0.1,0,0.2,0,0.3c0,0.1,0,0.1,0.1,0.2l-0.1,0c0,0.1,0.1,0.1,0.1,0.1l0,0.1c0,0,0,0.1,0,0.1l0,0c0,0,0,0.1,0,0.1
		c0,0.1,0,0.1,0,0.2c0,0.1,0,0.2,0,0.2c0,0.1,0,0.1,0,0.1l0,0.7c0,0,0,0.1,0,0.2s0,0.2,0,0.2l0,0.2c0,0,0,0.1,0,0.1l0,0.1l0.1,1.4
		c0,0,0,0.1,0,0.1c0,0.1,0,0.1,0,0.1l0,0.1c0,0,0,0.1,0.1,0.2c0,0.1,0.1,0.2,0.1,0.2c0,0.3,0,0.5,0,0.8s0,0.5,0,0.8
		c0,0.3,0.1,0.6,0.1,1S403.6,50.6,403.6,50.8L403.6,50.8L403.6,50.8z M400,38.3C399.9,38.3,399.9,38.3,400,38.3L400,38.3
		C399.9,38.4,399.9,38.4,400,38.3C400,38.4,400,38.4,400,38.3L400,38.3C400,38.3,400,38.3,400,38.3z"/>
	<path class="st9" d="M405.9,51.9c0,0,0-0.2,0.1-0.3c0-0.2,0.1-0.3,0.1-0.5c0-0.2,0.1-0.4,0.1-0.5c0-0.2,0.1-0.3,0.1-0.3l0.1-0.5
		c0,0,0,0,0.1-0.1c0,0,0.1,0,0.1-0.1s0-0.1,0-0.1c0-0.1,0-0.1,0-0.1l1.2-6.5c0.1-0.2,0.1-0.4,0.2-0.6c0-0.2,0.1-0.4,0.1-0.6
		c0.1-0.5,0.2-1,0.2-1.5s0.1-1,0.2-1.5l0.2-0.9c0,0,0.1-0.1,0.2-0.1s0.2,0,0.3,0c0.1,0,0.2,0,0.4,0c0.1,0,0.2,0,0.3,0.1l0.1,0
		c0.4,0.1,0.7,0.1,1,0.2c0.3,0.1,0.4,0.2,0.4,0.3l-1,5.7c0,0,0,0.1,0,0.1c0,0,0,0,0,0.1l0,0.1c0,0,0,0.1,0,0.1s0,0.1,0,0.1l-0.1,0.6
		c-0.1,0.8-0.3,1.5-0.5,2.3s-0.3,1.5-0.5,2.3c-0.1,0.4-0.1,0.8-0.2,1.2c0,0.4-0.1,0.8-0.2,1.3l-0.1,0.8c0,0-0.1,0.1-0.1,0.2
		c0,0.1-0.1,0.1-0.2,0.1l-2.2-0.4c-0.1,0-0.1,0-0.2-0.1s-0.1-0.1-0.1-0.2L405.9,51.9z"/>
	<path class="st9" d="M414.9,49.2C414.8,49.2,414.8,49.2,414.9,49.2c-0.1,0.1,0,0.1,0,0.1C414.9,49.3,414.9,49.3,414.9,49.2
		L414.9,49.2l0.1,0.2c0,0,0,0.1,0,0.1c0,0,0,0,0,0l0,0l0,0.2c0,0.1,0,0.2,0,0.2c0,0.1,0,0.1,0,0.2c0,0,0,0,0,0.1l-0.1,0.1l0,0.1
		l0.1-0.1l0,0.1c0,0,0,0.1-0.1,0.1l0.1,0c0,0,0,0,0,0l0,0c0,0,0,0,0,0c-0.1,0.1-0.2,0.2-0.2,0.3s-0.1,0.2-0.1,0.3c0,0.1,0,0.2,0,0.3
		s0,0.2,0,0.3c0,0.1,0,0.1-0.1,0.2c-0.1,0.1-0.1,0.1-0.1,0.2c0,0,0,0.1,0,0.1c0,0.1,0,0.1,0,0.1l0,0.1c0,0.2-0.1,0.4-0.1,0.6
		c0,0.2-0.1,0.4-0.1,0.6l0,0.3l0,0l0-0.1c0,0,0,0,0,0c0,0,0,0,0,0c0,0,0,0.1,0,0.1c-0.1,0.1-0.2,0.2-0.3,0.2l-2.3-0.4l0-0.1l-0.1,0
		c0-0.1,0-0.1,0-0.2c0-0.1-0.1-0.2-0.1-0.2l0.2-0.9c0-0.1,0.1-0.2,0.1-0.4c0.1-0.1,0.1-0.3,0.1-0.3l0.4-2.6c0,0,0-0.1,0-0.2
		c0-0.1,0-0.2,0-0.2c0,0,0-0.1,0-0.2c0-0.1,0-0.2,0.1-0.3s0-0.2,0.1-0.3s0-0.1,0-0.2l0-0.2c0-0.1,0-0.2,0-0.3c0-0.1,0-0.1,0-0.2
		c0-0.1,0-0.1,0.1-0.2l0.5-2.8c0-0.1-0.1-0.1,0-0.2l0-0.1c0,0,0,0,0,0l0.1,0l0,0c0,0,0,0,0,0c0,0,0,0,0,0l0,0l0,0
		c0-0.2,0.1-0.3,0.1-0.5c0-0.1,0.1-0.3,0.1-0.4c0.1-0.3,0.1-0.7,0.2-1c0-0.3,0.1-0.6,0.1-0.9l0.1-0.5l-0.1,0l0.1-0.1
		c0,0,0-0.1,0-0.2c0-0.1,0-0.3,0.1-0.4c0.1-0.5,0.2-0.9,0.2-1.1s0.1-0.4,0.3-0.4l0.1,0c0.1,0,0.2,0.1,0.3,0.3s0.3,0.4,0.6,0.7
		l0.4,0.5c0.1,0.1,0.1,0.2,0.2,0.3c0,0.1,0.1,0.2,0.1,0.3l0.3,0.3c0,0,0,0.1,0.1,0.2c0.1,0.1,0.1,0.2,0.1,0.2l0.6,0.7
		c0,0,0.1,0.1,0.1,0.2c0.1,0.1,0.1,0.2,0.2,0.2s0.1,0.2,0.2,0.2c0.1,0.1,0.1,0.1,0.1,0.1c0.1,0.1,0.1,0.2,0.2,0.3
		c0.1,0.1,0.1,0.2,0.3,0.2l0.1,0l0.7,1l0.1,0c0,0,0,0,0.1,0s0,0,0.1,0l-0.1,0.1c0.1,0.1,0.2,0.1,0.2,0.2c0,0.1,0,0.2,0.1,0.3
		l0.3,0.4l0.1,0l0.2,0.3l0.1,0c0,0,0,0,0.1,0.1c0,0.1,0.1,0.1,0.1,0.1l0,0c0.1,0.1,0.2,0.2,0.2,0.3c0,0.2,0.1,0.2,0.1,0.3l0,0
		c0,0,0.1,0,0.1,0l0,0c0,0.1,0,0.1,0,0.1l0.2,0.3c0,0,0,0,0.1,0.1c0.1,0,0.1,0.1,0.1,0.1l0,0c0,0,0,0.1,0.1,0.1
		c0,0.1,0.1,0.1,0.1,0.2s0.1,0.1,0.1,0.2s0.1,0.1,0.1,0.2l0.1,0.1c0,0,0,0,0,0l1,1.3c0.1,0.1,0.2,0.3,0.3,0.5s0.2,0.3,0.3,0.4l0,0
		l0,0c0,0,0,0,0,0s0,0,0,0l0,0c0.1,0,0.1-0.1,0.1-0.1c0,0,0.1-0.1,0.1-0.2c0-0.1,0-0.1,0-0.1c0,0,0,0,0-0.1c0,0,0-0.1,0.1-0.2
		s0.1-0.2,0.1-0.3c0-0.1,0-0.2,0-0.2c0-0.1,0-0.2,0-0.2l-0.1,0c0,0,0-0.1,0.1-0.1c0,0,0.1-0.1,0.1-0.1l0.1-0.7c0,0,0,0,0-0.1
		s0-0.1,0-0.1c0-0.1,0-0.1,0.1-0.1c0,0,0.1-0.1,0.1-0.1c0,0,0-0.1,0-0.2c0-0.1,0-0.1,0-0.2l0.1-0.3c0,0,0-0.1,0-0.2
		c0-0.1,0-0.2,0-0.2l0,0l0-0.1l0.2-0.9c0,0,0-0.1,0-0.2c0-0.1,0-0.2,0.1-0.2c0-0.1,0-0.2,0.1-0.3c0-0.2,0.1-0.3,0.1-0.5
		c0-0.2,0-0.3,0.1-0.5s0-0.2,0.1-0.3l0,0c0-0.1,0.1-0.1,0.1-0.2c0-0.1,0-0.2,0.1-0.3c0-0.1,0-0.2,0-0.3c0-0.1,0-0.2,0-0.3
		c0.1-0.3,0.1-0.5,0.2-0.7c0.1-0.2,0.1-0.3,0.2-0.3c0.1-0.1,0.2-0.1,0.3-0.1c0.1,0,0.2,0,0.4,0c0.1,0,0.2,0,0.3,0.1
		c0.1,0,0.2,0,0.3,0.1l0.2-0.1l0,0l0.1,0l0,0c0.2,0,0.3,0.1,0.5,0.2c0.2,0.1,0.3,0.2,0.2,0.5c0,0.1,0,0.2-0.1,0.3
		c0,0.1-0.1,0.2-0.1,0.3c0,0,0.1,0,0,0.1l0,0c0,0,0,0,0,0l-0.1,0.3l0,0l-0.1,0.6c0,0-0.1,0-0.1,0.1c0,0.1,0,0.2,0,0.2
		c0,0.1,0,0.2,0,0.3c0,0.1-0.1,0.1-0.2,0.2c-0.1,0.1-0.1,0.1-0.2,0.2l0,0l0.2,0l-0.1,0.1l0.1,0l0,0.1l0.1,0l-0.1,0.1l0.1,0l-0.1,0.1
		l0.1-0.1c0,0.1,0,0.1,0,0.2c0,0,0,0.1-0.1,0.1c0,0,0,0,0,0c0,0-0.1,0-0.1,0s0,0,0.1,0.1c-0.1,0-0.1,0.1-0.1,0.1
		c0,0-0.1,0.1-0.1,0.1l-0.1,0.5l0.1,0.1c0,0.1-0.1,0.2-0.1,0.4c0,0.1-0.1,0.3-0.1,0.4l0,0.3l0,0.2l-0.1,0.2c0,0,0,0.1-0.1,0.2
		c-0.1,0.1-0.1,0.2-0.1,0.2c0.1,0,0.1,0.1,0.1,0.2c0,0.1,0,0.1,0,0.2l0,0.1c0,0-0.1,0-0.1,0.1c-0.1,0.1-0.1,0.1-0.1,0.1l-0.1,0.7
		l0.1,0.3l0,0.1c0,0.1,0,0.2-0.1,0.4s-0.1,0.2-0.1,0.3c0,0.1,0,0.2,0,0.2c0,0.1,0,0.1,0,0.1c0,0-0.1,0-0.1,0.1
		c-0.1,0.1-0.1,0.1-0.1,0.1l-0.1,0.4c0,0,0,0,0,0.1c0,0,0,0,0,0.1l0,0c0,0,0,0-0.1,0.1l-0.1,0.1l0.1,0c-0.1,0-0.1,0.1-0.1,0.1
		c0,0,0,0.1,0,0.1s0,0.1,0,0.1c0,0,0,0.1-0.1,0.1c0,0,0,0,0.1,0c0,0,0,0,0,0.1c0,0,0,0.1-0.1,0.1l-0.1,0l-0.1,0.5c0,0,0,0.1,0.1,0.1
		s0.1,0.1,0.1,0.1l0,0.1c0,0.1-0.1,0.2-0.1,0.3c-0.1,0.1-0.1,0.2-0.1,0.3l0,0.2c0,0.1,0,0.2,0,0.3c0,0.1,0,0.2,0,0.3s0,0.2,0,0.4
		c0,0.1,0,0.3-0.1,0.5c0,0.1,0,0.3-0.1,0.5c0,0.2-0.1,0.4-0.1,0.6c0,0.2-0.1,0.3-0.2,0.5c-0.1,0.1-0.2,0.2-0.2,0.2
		c0,0-0.1,0-0.2-0.1c-0.1-0.1-0.2-0.2-0.3-0.3c-0.1-0.1-0.2-0.2-0.3-0.3c-0.1-0.1-0.1-0.1-0.1-0.2c-0.1-0.2-0.3-0.4-0.4-0.6
		c-0.1-0.2-0.3-0.4-0.4-0.6c0,0-0.1,0-0.1-0.1c-0.1-0.1-0.1-0.1-0.1-0.2l0-0.1c-0.2-0.3-0.4-0.6-0.5-0.8c-0.2-0.2-0.3-0.5-0.5-0.7
		c-0.2-0.2-0.3-0.4-0.4-0.6l-0.6-0.7c-0.1-0.2-0.2-0.3-0.3-0.5c-0.2-0.2-0.4-0.5-0.5-0.8c-0.2-0.3-0.3-0.5-0.5-0.8l0,0
		c-0.1,0-0.1-0.1-0.2-0.2c-0.1-0.1-0.1-0.2-0.2-0.2l-0.4-0.6c0,0-0.1-0.1-0.2-0.3c-0.1-0.2-0.2-0.3-0.2-0.3l-0.1-0.2l-0.4-0.5
		L417,46l-0.4-0.6c-0.1-0.1-0.2-0.1-0.3-0.3c-0.1-0.1-0.1-0.2-0.2-0.3c-0.1-0.1-0.1-0.2-0.1-0.3c0-0.1-0.1-0.1-0.2-0.1
		c-0.2,0-0.3,0-0.3,0.1c0,0.1,0,0.2-0.1,0.3c0,0,0,0.1,0,0.2c0,0.1,0,0.2,0,0.3c0,0.1,0,0.2,0,0.3c0,0.1,0,0.2,0,0.2l-0.2,0.9
		c0,0-0.1,0-0.1,0c0,0,0,0.1,0,0.1c0,0.1,0,0.1,0.1,0.1l-0.1,0.5c0,0.1-0.1,0.2-0.1,0.3c-0.1,0.1-0.1,0.2-0.1,0.2l0,0.1
		c0,0,0,0.1,0,0.2c0,0.1,0,0.2,0,0.2L414.9,49.2z M413,43.7C413,43.7,413,43.7,413,43.7C413,43.7,413,43.7,413,43.7L413,43.7z
		 M414.9,49.2C414.9,49.2,414.9,49.2,414.9,49.2C414.9,49.3,414.9,49.3,414.9,49.2C414.9,49.3,414.9,49.2,414.9,49.2z M415.7,44.3
		L415.7,44.3C415.6,44.4,415.7,44.4,415.7,44.3L415.7,44.3L415.7,44.3L415.7,44.3L415.7,44.3z M415.9,44.3
		C415.8,44.3,415.8,44.3,415.9,44.3c-0.1,0.1,0,0.1,0,0.1C415.9,44.4,415.9,44.4,415.9,44.3C415.9,44.3,415.9,44.3,415.9,44.3z
		 M426.9,43.9C426.9,43.9,426.9,43.9,426.9,43.9c0,0.1,0,0.1,0,0.1c0,0,0.1,0,0.1,0C427,43.9,427,43.9,426.9,43.9z M427.2,43.3
		C427.2,43.3,427.1,43.3,427.2,43.3c-0.1,0.1,0,0.1,0,0.1L427.2,43.3C427.2,43.3,427.2,43.3,427.2,43.3
		C427.2,43.3,427.2,43.3,427.2,43.3C427.2,43.3,427.2,43.3,427.2,43.3z"/>
	<path class="st9" d="M441.6,58C441.5,58,441.5,58,441.6,58c-0.1,0.1-0.1,0.1,0,0.1c0,0-0.1,0-0.1,0c0,0-0.1,0-0.1,0l-2.4-0.3
		l-0.2-0.2c-0.2-0.5-0.3-1.1-0.4-1.6c-0.1-0.5-0.3-1-0.5-1.5l-0.1-0.4c0,0,0,0-0.1-0.1s0,0,0,0l-6-0.8c-0.2,0.2-0.4,0.4-0.5,0.5
		s-0.2,0.4-0.3,0.5s-0.2,0.3-0.2,0.5s-0.1,0.3-0.2,0.4c0,0-0.1,0.1-0.1,0.2c-0.1,0.2-0.2,0.3-0.3,0.5s-0.2,0.3-0.3,0.5
		c-0.1,0.1-0.2,0.2-0.3,0.2l-2.2-0.3c-0.1,0-0.2-0.1-0.2-0.2c0-0.1,0.1-0.2,0.1-0.4c0.1-0.2,0.1-0.3,0.2-0.5
		c0.1-0.2,0.2-0.3,0.2-0.4c0.1-0.1,0.1-0.2,0.2-0.2l1.4-2.2c0.4-0.5,0.8-1.1,1.2-1.7c0.4-0.6,0.8-1.2,1.1-1.7c0.4-0.6,0.7-1.1,1-1.6
		s0.6-0.9,0.8-1.3l1.8-2.8c0.1-0.2,0.2-0.3,0.3-0.5s0.2-0.4,0.3-0.5c0.1-0.2,0.2-0.3,0.3-0.4c0.1-0.1,0.2-0.1,0.3-0.1
		c0.2,0,0.3,0.1,0.4,0.3c0,0.2,0.1,0.4,0.1,0.5l0,0.1c0,0,0.1,0.1,0.1,0.3c0,0.2,0.1,0.4,0.2,0.6c0.1,0.2,0.1,0.4,0.2,0.6
		c0.1,0.2,0.1,0.4,0.1,0.5l0.5,1.5c0.1,0.4,0.2,0.9,0.4,1.2c0.2,0.4,0.3,0.8,0.5,1.2l0,0c0,0,0,0.1,0,0.2c0,0.1,0.1,0.2,0.1,0.4
		c0,0.1,0.1,0.3,0.2,0.5c0.1,0.2,0.1,0.3,0.1,0.4l0.5,1.5l0,0c0,0,0,0,0,0c0,0,0,0.2,0.1,0.4s0.2,0.5,0.3,0.8
		c0.1,0.3,0.2,0.5,0.3,0.8c0.1,0.2,0.1,0.4,0.1,0.4l0.3,1c0.2,0.6,0.4,1.1,0.6,1.6c0.2,0.5,0.3,0.9,0.2,1.3L441.6,58L441.6,58
		C441.6,58,441.6,58,441.6,58z M431.5,53.4C431.5,53.4,431.4,53.4,431.5,53.4c-0.1,0.1,0,0.1,0,0.1
		C431.5,53.5,431.5,53.5,431.5,53.4C431.5,53.4,431.5,53.4,431.5,53.4z M437.1,51.4l-0.3-0.9c-0.3-1.2-0.7-2.4-1.1-3.6l0,0
		c0,0,0,0,0,0c0,0,0,0,0,0c-0.1,0.1-0.2,0.2-0.3,0.3s-0.1,0.2-0.2,0.3c-0.3,0.4-0.6,0.9-0.8,1.3c-0.2,0.4-0.5,0.8-0.7,1.3
		c-0.1,0.1-0.2,0.3-0.3,0.4c-0.1,0.1-0.2,0.2-0.2,0.4l0,0.2c0,0,0.1,0.1,0.2,0.1s0.2,0,0.2,0c0.5,0.1,0.9,0.1,1.3,0.2
		s0.9,0.1,1.3,0.2l0.6,0.1c0,0,0.1,0,0.1-0.1C437,51.6,437,51.5,437.1,51.4L437.1,51.4c0,0.1,0,0.1,0,0.1
		C437.1,51.6,437.1,51.6,437.1,51.4C437.1,51.5,437.1,51.4,437.1,51.4L437.1,51.4z M441.6,58.1C441.6,58.1,441.6,58.1,441.6,58.1
		C441.6,58.1,441.6,58.1,441.6,58.1C441.6,58.1,441.6,58.1,441.6,58.1z"/>
	<path class="st9" d="M444,58.4c0,0-0.1-0.1-0.2-0.1s-0.1-0.1-0.1-0.2l0.9-8.2c0,0,0-0.1,0-0.1c0-0.1,0-0.1,0-0.2c0-0.1,0-0.1,0-0.2
		c0-0.1,0-0.1,0-0.1l0.1-0.5c0-0.1,0-0.3,0.1-0.4c0-0.1,0.1-0.3,0.1-0.4c0-0.4,0-0.9,0.1-1.3c0-0.5,0.1-0.9,0.1-1.4
		c0-0.4,0.1-0.8,0.1-1.1c0-0.3,0-0.5,0-0.6c0-0.1,0.1-0.2,0.1-0.3c0.1,0,0.2-0.1,0.3-0.1l1.2,0.1c0.1,0,0.1,0,0.2,0
		c0.1,0,0.2,0,0.3,0.1c0.1,0,0.2,0,0.3,0.1l0.2,0.2L446.4,56c0,0,0,0.1,0.1,0.2c0.1,0.1,0.2,0.1,0.2,0.1l4.1,0.4
		c0.1,0,0.1,0,0.1,0.1c0,0.1,0,0.2,0,0.3c0,0.1,0,0.2,0,0.3s0,0.2,0,0.2c0,0.1,0,0.2-0.1,0.4c0,0.2-0.1,0.3-0.1,0.5
		c0,0.2-0.1,0.3-0.1,0.4c-0.1,0.1-0.1,0.2-0.2,0.2c0,0-0.1,0-0.2,0c-0.1,0-0.2,0-0.2,0l-0.2,0c-1-0.1-1.9-0.2-2.9-0.3
		C446,58.6,445,58.5,444,58.4z"/>
	<path class="st9" d="M452.5,58.6c0,0,0-0.2,0-0.3c0-0.2,0-0.3,0.1-0.5c0-0.2,0-0.4,0.1-0.6c0-0.2,0-0.3,0-0.3l0-0.5c0,0,0,0,0-0.1
		c0,0,0,0,0-0.1c0,0,0-0.1,0-0.1c0-0.1,0-0.1,0-0.1l0.6-6.6c0.1-0.2,0.1-0.4,0.1-0.6s0-0.4,0.1-0.6c0-0.5,0.1-1,0.1-1.5s0-1,0.1-1.6
		l0.1-0.9c0,0,0.1-0.1,0.2-0.1s0.2,0,0.3,0c0.1,0,0.2,0,0.4,0s0.2,0,0.3,0l0.1,0c0.4,0,0.7,0.1,1,0.1c0.3,0.1,0.4,0.2,0.4,0.3
		l-0.5,5.7c0,0,0,0.1,0,0.1c0,0,0,0,0,0.1l0,0.1c0,0,0,0.1,0,0.1c0,0.1,0,0.1,0,0.1l-0.1,0.6c-0.1,0.8-0.1,1.6-0.2,2.3
		c-0.1,0.8-0.2,1.6-0.2,2.3c0,0.4-0.1,0.8-0.1,1.3c0,0.4,0,0.9-0.1,1.3l-0.1,0.8c0,0-0.1,0.1-0.1,0.2s-0.1,0.1-0.1,0.1l-2.2-0.2
		c-0.1,0-0.1,0-0.2-0.1c-0.1,0-0.1-0.1-0.1-0.2L452.5,58.6z"/>
	<path class="st9" d="M474.8,59.5C474.8,59.5,474.8,59.5,474.8,59.5c0,0.1,0,0.1,0,0.1l0,0c0.1,0.2,0.1,0.5,0.1,0.6
		c0,0.3-0.1,0.4-0.3,0.4l-2.3-0.1c-0.1,0-0.2-0.2-0.3-0.5s-0.2-0.7-0.2-1.2c-0.1-0.5-0.1-0.9-0.2-1.4s-0.1-0.8-0.2-1.1l0,0
		c0,0,0-0.1,0-0.3c0-0.2,0-0.3,0-0.3l-0.1-0.5c0,0,0-0.1,0-0.3c0-0.2,0-0.4-0.1-0.7s-0.1-0.5-0.1-0.9s-0.1-0.6-0.1-0.8
		c0-0.3-0.1-0.5-0.1-0.6c0-0.2-0.1-0.3-0.1-0.3c0,0-0.1,0.1-0.2,0.3c-0.1,0.2-0.2,0.4-0.3,0.7s-0.2,0.5-0.3,0.8
		c-0.1,0.3-0.2,0.5-0.3,0.7c-0.1,0.3-0.2,0.6-0.4,0.8s-0.3,0.6-0.4,0.8c-0.2,0.3-0.3,0.6-0.4,0.9s-0.2,0.6-0.4,0.9l-0.3,0.6
		c0,0,0,0.1-0.1,0.2s0,0.1,0,0.2l0,0c0,0.1,0,0.1,0.1,0.1l-0.4,0.7l0,0.1c0,0.1-0.1,0.1-0.1,0.3s-0.1,0.2-0.2,0.4
		c0,0.1-0.1,0.2-0.1,0.3c0,0.1,0,0.1,0,0.1l0,0.2c0,0.1-0.1,0.1-0.2,0.2c-0.1,0-0.2,0.1-0.3,0.1c-0.1,0-0.3-0.1-0.4-0.2
		c-0.1-0.1-0.2-0.3-0.2-0.4c-0.1-0.2-0.1-0.3-0.2-0.5s-0.1-0.3-0.1-0.4c0-0.1-0.1-0.3-0.1-0.4l-0.3-0.5c0-0.1,0-0.1,0-0.2
		c0-0.1,0-0.1,0-0.2c-0.1-0.1-0.1-0.2-0.2-0.5c0-0.2-0.1-0.4-0.1-0.6l-0.6-1.6l-0.5-1.5c-0.1-0.1-0.1-0.3-0.2-0.5
		c-0.1-0.2-0.1-0.4-0.2-0.6c-0.1-0.2-0.1-0.4-0.2-0.6s-0.2-0.4-0.3-0.5c-0.1,0.1-0.2,0.2-0.2,0.4s-0.1,0.3-0.2,0.5
		c0,0.2-0.1,0.4-0.1,0.6c0,0.2-0.1,0.3-0.1,0.4l-0.3,0.9c0,0,0,0,0,0.1c0,0.1,0,0.1,0,0.1l0,0.1l-0.2,0.5l0,0.2
		c-0.1,0.2-0.1,0.4-0.2,0.7c-0.1,0.2-0.1,0.4-0.2,0.7c-0.1,0.3-0.2,0.5-0.2,0.8c0,0.3-0.1,0.5-0.2,0.8l0,0.1c0,0,0,0,0,0.1l0,0
		l-0.1,0.5c0,0,0,0.1,0,0.2s0,0.2-0.1,0.3c0,0.1-0.1,0.2-0.1,0.3s-0.1,0.2-0.2,0.2c-0.1,0-0.1,0-0.3,0c-0.1,0-0.3,0-0.4,0
		c-0.1,0-0.3,0-0.4,0c-0.1,0-0.2,0-0.3,0l-0.5,0c0,0-0.1,0-0.1,0c-0.1,0-0.1,0-0.2,0l-0.1,0c-0.1,0-0.2-0.1-0.3-0.2
		c0-0.1-0.1-0.2,0-0.3c0-0.1,0-0.3,0.1-0.4c0-0.1,0.1-0.3,0.1-0.4c0.3-0.9,0.5-1.8,0.8-2.7c0.3-0.9,0.5-1.8,0.7-2.7l0.1-0.1
		c0.1-0.1,0.1-0.2,0.1-0.3s0.1-0.2,0.1-0.3c0-0.1,0-0.2,0.1-0.4c0.1-0.1,0.1-0.3,0.1-0.5l0,0c0.1-0.3,0.2-0.5,0.3-0.7
		c0.1-0.2,0.1-0.4,0.2-0.7c0,0,0.1-0.1,0.1-0.2c0-0.2,0.1-0.3,0.1-0.5c0-0.2,0.1-0.4,0.2-0.8c0-0.1,0.1-0.2,0.1-0.4
		c0-0.1,0.1-0.2,0.1-0.3c0.1-0.5,0.3-1,0.5-1.5c0.2-0.5,0.3-1,0.4-1.5l0.1-0.6c0,0,0-0.1,0.1-0.2c0.1-0.1,0.1-0.2,0.2-0.2l0,0
		c0.1,0,0.2,0.1,0.3,0.2c0.1,0.1,0.2,0.3,0.2,0.5c0.1,0.2,0.1,0.4,0.2,0.6c0,0.2,0.1,0.4,0.2,0.5l0.7,1.9l0.2,0.6
		c0,0.1,0.1,0.3,0.2,0.4c0.1,0.2,0.1,0.3,0.2,0.5s0.1,0.3,0.2,0.4c0,0.1,0.1,0.2,0.1,0.3l0.2,0.5c0.1,0.1,0.1,0.3,0.2,0.5
		c0,0.2,0.1,0.5,0.2,0.7c0.1,0.1,0.1,0.2,0.2,0.4c0.1,0.2,0.1,0.3,0.1,0.5l0,0l0.3,0.8c0,0,0,0.1,0,0.1c0,0.1,0,0.1,0,0.2
		c0,0,0,0,0,0c0,0,0,0,0,0l0.1,0c0,0,0,0.1,0.1,0.3c0,0.2,0,0.3,0.1,0.3l0.2,0.5c0,0,0.1,0,0.1,0c0.1,0,0.1,0,0.1,0l0-0.1
		c0.1,0,0.1-0.1,0.2-0.1c0-0.1,0.1-0.1,0.1-0.2L467,54c0-0.1,0-0.2,0.1-0.4s0.2-0.3,0.3-0.5l0-0.1c0,0,0-0.1,0.1-0.2
		s0.1-0.2,0.1-0.2l0-0.1c0-0.1,0.1-0.2,0.2-0.3s0.1-0.1,0.2-0.3l0.6-1.2c0-0.1,0.1-0.2,0.1-0.3c0-0.1,0.1-0.2,0.1-0.3l0.3-0.5
		c0,0,0.1-0.2,0.2-0.4c0.1-0.2,0.2-0.4,0.2-0.6l0.2-0.5c0,0,0-0.1,0.1-0.3c0.1-0.2,0.1-0.3,0.2-0.3l0-0.3l0.1-0.1c0,0,0,0,0-0.1
		c0,0,0,0-0.1-0.1c0.1,0,0.1,0,0.3-0.1c0,0,0,0,0-0.1c0,0,0,0,0,0l0,0.1c0-0.1,0.1-0.1,0.1-0.2c0-0.1,0.1-0.1,0.1-0.2
		c0-0.1,0-0.1,0.1-0.2l0-0.2l0.1,0c0,0,0-0.1,0.1-0.2c0-0.1,0.1-0.1,0.1-0.2c0-0.1,0.1-0.1,0.1-0.2l0-0.1l0.3-0.6c0,0,0-0.1,0.1-0.2
		c0-0.1,0.1-0.2,0.1-0.3c0.1-0.1,0.1-0.2,0.2-0.2c0.1-0.1,0.1-0.1,0.2-0.1c0.1,0,0.2,0,0.3,0.1c0.1,0.1,0.1,0.2,0.2,0.3
		c0,0.1,0.1,0.2,0.1,0.4c0,0.1,0,0.2,0,0.3l0,0.1c0,0.2,0.1,0.3,0.1,0.5c0.1,0.1,0.1,0.3,0.1,0.4l0.2,1.2c0,0.2,0,0.3,0.1,0.4
		s0,0.2,0,0.4l0,0c0,0,0.1,0.1,0.1,0.3c0,0.1,0,0.3,0,0.3c0,0.3,0.1,0.5,0.1,0.6c0.1,0.2,0.1,0.4,0.2,0.6l0,0.1c0,0,0,0.1,0,0.1
		c0,0.1,0,0.1,0,0.1l0,0.2c0,0,0,0,0,0c0,0,0,0,0,0.1l0,0.1c0,0.1,0,0.2,0,0.3s0.1,0.1,0.1,0.1l-0.1,0c0.1,0,0.1,0.1,0.1,0.1l0,0.1
		c0,0,0,0.1,0,0.1l0,0c0,0,0,0.1,0,0.1c0,0.1,0,0.1,0,0.2s0,0.2,0,0.2c0,0.1,0,0.1,0,0.1l0.1,0.7c0,0,0,0.1,0.1,0.2s0.1,0.2,0.1,0.2
		l0,0.2c0,0,0,0,0,0.1l0,0.1l0.3,1.4c0,0,0,0.1,0,0.1c0,0.1,0,0.1,0,0.1l0,0.1c0,0,0,0.1,0.1,0.2c0,0.1,0.1,0.2,0.1,0.2
		c0.1,0.3,0.1,0.5,0.1,0.8c0,0.3,0.1,0.5,0.1,0.8c0.1,0.3,0.1,0.6,0.2,0.9S474.7,59.3,474.8,59.5L474.8,59.5L474.8,59.5z
		 M469.8,47.4C469.8,47.4,469.8,47.5,469.8,47.4L469.8,47.4C469.8,47.5,469.8,47.5,469.8,47.4C469.8,47.5,469.9,47.5,469.8,47.4
		L469.8,47.4C469.9,47.5,469.9,47.4,469.8,47.4z"/>
	<path class="st9" d="M491.7,60.3C491.6,60.3,491.6,60.3,491.7,60.3c-0.1,0.1-0.1,0.2,0,0.2c0,0-0.1,0-0.1,0c0,0,0,0-0.1,0l-2.4,0
		l-0.2-0.1c-0.2-0.5-0.5-1-0.7-1.5s-0.4-1-0.7-1.4l-0.1-0.4c0,0-0.1,0-0.1-0.1c0,0,0,0-0.1,0l-6,0.1c-0.2,0.2-0.3,0.4-0.4,0.6
		c-0.1,0.2-0.2,0.4-0.3,0.6c-0.1,0.2-0.1,0.3-0.2,0.5c0,0.2-0.1,0.3-0.1,0.4c0,0,0,0.1-0.1,0.2s-0.1,0.3-0.2,0.5s-0.1,0.4-0.2,0.5
		c-0.1,0.2-0.2,0.2-0.3,0.2l-2.3,0c-0.2,0-0.2-0.1-0.2-0.2c0-0.1,0-0.2,0.1-0.4s0.1-0.3,0.2-0.5c0.1-0.2,0.1-0.3,0.2-0.4
		c0.1-0.1,0.1-0.2,0.1-0.2l1.1-2.4c0.3-0.6,0.6-1.2,0.9-1.9c0.3-0.6,0.6-1.3,0.8-1.9c0.3-0.6,0.5-1.2,0.7-1.7c0.2-0.5,0.4-1,0.6-1.4
		l1.4-3c0.1-0.2,0.2-0.4,0.2-0.6c0.1-0.2,0.1-0.4,0.2-0.6s0.2-0.3,0.3-0.4c0.1-0.1,0.2-0.2,0.3-0.2c0.2,0,0.3,0.1,0.4,0.3
		s0.1,0.3,0.2,0.5l0,0.1c0,0,0.1,0.1,0.2,0.2c0.1,0.2,0.2,0.3,0.3,0.5s0.2,0.4,0.3,0.6c0.1,0.2,0.2,0.4,0.2,0.4l0.7,1.4
		c0.1,0.4,0.3,0.8,0.5,1.2c0.2,0.4,0.4,0.7,0.6,1.2l0,0c0,0,0,0.1,0.1,0.2c0,0.1,0.1,0.2,0.2,0.4c0.1,0.1,0.1,0.3,0.2,0.4
		c0.1,0.1,0.1,0.3,0.2,0.4l0.7,1.4h0c0,0,0,0,0,0c0,0,0.1,0.2,0.2,0.4c0.1,0.2,0.2,0.5,0.4,0.7c0.1,0.3,0.3,0.5,0.4,0.7
		c0.1,0.2,0.2,0.3,0.2,0.4l0.5,0.9c0.3,0.6,0.6,1.1,0.8,1.5c0.3,0.5,0.4,0.9,0.4,1.3L491.7,60.3L491.7,60.3
		C491.7,60.3,491.7,60.3,491.7,60.3z M481,57.2C481,57.2,480.9,57.3,481,57.2c0,0.1,0,0.1,0,0.1C481,57.4,481,57.3,481,57.2
		C481,57.3,481,57.2,481,57.2z M486.2,54.5l-0.4-0.8c-0.5-1.1-1-2.3-1.6-3.4h0c0,0,0,0,0,0c0,0,0,0,0,0c-0.1,0.1-0.2,0.2-0.2,0.3
		c0,0.1-0.1,0.2-0.2,0.4c-0.2,0.5-0.4,0.9-0.6,1.4c-0.2,0.4-0.3,0.9-0.5,1.4c-0.1,0.2-0.2,0.3-0.2,0.4c-0.1,0.1-0.1,0.3-0.1,0.4
		l0,0.2c0,0,0.1,0.1,0.2,0.1c0.1,0,0.2,0,0.2,0c0.5,0,0.9,0,1.3,0c0.4,0,0.9,0,1.3,0l0.6,0c0,0,0.1-0.1,0.1-0.1
		C486.1,54.6,486.2,54.6,486.2,54.5L486.2,54.5c0,0.1,0,0.1,0,0.1C486.3,54.6,486.3,54.6,486.2,54.5
		C486.3,54.5,486.3,54.5,486.2,54.5L486.2,54.5z M491.7,60.3C491.7,60.4,491.7,60.4,491.7,60.3C491.7,60.4,491.7,60.4,491.7,60.3
		C491.7,60.4,491.7,60.4,491.7,60.3z"/>
	<path class="st9" d="M493.4,54.3c0-0.5,0.1-0.9,0.4-1.2c0.3-0.4,0.7-0.6,1.1-0.6c0.5,0,1,0.1,1.3,0.4c0.3,0.3,0.5,0.7,0.5,1.2
		c0,0.2,0,0.4-0.1,0.6c-0.1,0.2-0.2,0.4-0.4,0.5c-0.2,0.1-0.3,0.3-0.5,0.3c-0.2,0.1-0.4,0.1-0.6,0.1c-0.2,0-0.4,0-0.6-0.1
		c-0.2-0.1-0.4-0.2-0.5-0.3c-0.2-0.1-0.3-0.3-0.4-0.5C493.5,54.7,493.5,54.5,493.4,54.3z M494.5,60.7c-0.2-0.2-0.4-0.3-0.6-0.6
		c-0.1-0.2-0.2-0.5-0.2-0.7c0-0.4,0-0.6,0.1-0.9s0.2-0.4,0.4-0.5c0.2-0.1,0.4-0.2,0.6-0.3c0.2-0.1,0.4-0.1,0.6-0.1l0.3,0
		c0,0,0.1,0,0.2,0.1s0.2,0.1,0.3,0.1c0.2,0.1,0.4,0.3,0.6,0.6s0.3,0.5,0.3,0.8c0,0.6-0.1,1-0.5,1.3s-0.7,0.5-1.2,0.5
		c-0.2,0-0.3,0-0.3,0c-0.1,0-0.2,0-0.4-0.1c0,0-0.1,0-0.1-0.1S494.6,60.6,494.5,60.7L494.5,60.7z"/>
</g>
</svg>
